<svg width="25" height="23" viewBox="0 0 25 23" fill="none" xmlns="http://www.w3.org/2000/svg">
<path fill-rule="evenodd" clip-rule="evenodd" d="M4.66895 5.66667C4.66895 3.36548 6.53443 1.5 8.83561 1.5C11.1368 1.5 13.0023 3.36548 13.0023 5.66667C13.0023 7.96785 11.1368 9.83333 8.83561 9.83333C6.53443 9.83333 4.66895 7.96785 4.66895 5.66667ZM8.83561 0.5C5.98214 0.5 3.66895 2.8132 3.66895 5.66667C3.66895 8.52014 5.98214 10.8333 8.83561 10.8333C11.6891 10.8333 14.0023 8.52014 14.0023 5.66667C14.0023 2.8132 11.6891 0.5 8.83561 0.5ZM5.33561 14.5C3.96533 14.5 2.65117 15.0443 1.68223 16.0133C0.713289 16.9822 0.168945 18.2964 0.168945 19.6667V22C0.168945 22.2761 0.392803 22.5 0.668945 22.5C0.945088 22.5 1.16895 22.2761 1.16895 22V19.6667C1.16895 18.5616 1.60793 17.5018 2.38933 16.7204C3.17074 15.939 4.23054 15.5 5.33561 15.5H12.3356C13.4407 15.5 14.5005 15.939 15.2819 16.7204C16.0633 17.5018 16.5023 18.5616 16.5023 19.6667V22C16.5023 22.2761 16.7261 22.5 17.0023 22.5C17.2784 22.5 17.5023 22.2761 17.5023 22V19.6667C17.5023 18.2964 16.9579 16.9822 15.989 16.0133C15.0201 15.0443 13.7059 14.5 12.3356 14.5H5.33561ZM20.0169 15.0273C20.0859 14.76 20.3586 14.5992 20.626 14.6682C21.7344 14.9544 22.7164 15.6006 23.4177 16.5054C24.1191 17.4101 24.5001 18.5222 24.501 19.667V19.6673V22.0007C24.501 22.2768 24.2771 22.5007 24.001 22.5007C23.7248 22.5007 23.501 22.2768 23.501 22.0007V19.6677C23.5003 18.7445 23.193 17.8477 22.6274 17.118C22.0618 16.3884 21.2699 15.8673 20.376 15.6365C20.1086 15.5674 19.9478 15.2947 20.0169 15.0273ZM17.125 0.667969C16.8575 0.599475 16.5851 0.760811 16.5166 1.02832C16.4481 1.29584 16.6094 1.56822 16.877 1.63672C17.7732 1.8662 18.5676 2.38745 19.1349 3.11829C19.7022 3.84914 20.0101 4.748 20.0101 5.67318C20.0101 6.59835 19.7022 7.49722 19.1349 8.22806C18.5676 8.95891 17.7732 9.48016 16.877 9.70964C16.6094 9.77813 16.4481 10.0505 16.5166 10.318C16.5851 10.5855 16.8575 10.7469 17.125 10.6784C18.2364 10.3938 19.2214 9.74748 19.9249 8.84123C20.6283 7.93499 21.0101 6.8204 21.0101 5.67318C21.0101 4.52596 20.6283 3.41137 19.9249 2.50512C19.2214 1.59887 18.2364 0.952524 17.125 0.667969Z" fill="#222222"/>
</svg>
