<svg width="21" height="20" viewBox="0 0 21 20" fill="none" xmlns="http://www.w3.org/2000/svg">
<g opacity="0.5">
<path d="M16.8337 7.5H9.33366C8.41318 7.5 7.66699 8.24619 7.66699 9.16667V16.6667C7.66699 17.5871 8.41318 18.3333 9.33366 18.3333H16.8337C17.7541 18.3333 18.5003 17.5871 18.5003 16.6667V9.16667C18.5003 8.24619 17.7541 7.5 16.8337 7.5Z" stroke="#222222" stroke-linecap="round" stroke-linejoin="round"/>
<path d="M4.33496 12.5013H3.50163C3.0596 12.5013 2.63568 12.3257 2.32312 12.0131C2.01056 11.7006 1.83496 11.2767 1.83496 10.8346V3.33464C1.83496 2.89261 2.01056 2.46868 2.32312 2.15612C2.63568 1.84356 3.0596 1.66797 3.50163 1.66797H11.0016C11.4437 1.66797 11.8676 1.84356 12.1801 2.15612C12.4927 2.46868 12.6683 2.89261 12.6683 3.33464V4.16797" stroke="#222222" stroke-linecap="round" stroke-linejoin="round"/>
</g>
</svg>
