<svg width="24" height="24" viewBox="0 0 24 24" fill="none" xmlns="http://www.w3.org/2000/svg">
<rect width="24" height="24" rx="6" fill="white"/>
<rect width="24" height="24" rx="6" fill="#F28338"/>
<path d="M10.284 18.104L10.2895 18.1092C11.2636 18.9592 11.7507 19.3842 12.3666 19.4931C12.8693 19.5821 13.4418 19.4812 13.8838 19.226C14.4255 18.9132 14.7349 18.3531 15.3538 17.233C15.4395 17.0781 15.5292 16.9168 15.6232 16.7489C16.7098 14.5257 17.3647 12.1037 17.5407 11.3073C17.7389 10.4103 17.8781 9.49619 17.9039 8.58022C17.9225 7.91761 17.8271 6.87401 17.5754 6.50653C17.202 5.96143 16.6034 5.60389 15.5889 5.85172C14.5744 6.09954 13.8976 6.86302 13.3713 7.55174C12.5203 8.66546 12.1017 9.69791 11.7638 10.6578C11.0116 9.75444 10.1875 8.92163 9.15692 8.29446C8.40475 7.83673 7.3901 7.17636 6.43728 7.3017C5.86687 7.37673 4.71004 7.95411 4.64555 9.19892C4.56671 9.88424 4.84168 10.6018 5.10467 11.2212C5.46822 12.0774 5.93821 12.8902 6.45757 13.6651C7.55104 15.2967 8.85797 16.7409 10.284 18.104Z" fill="white"/>
</svg>
