<svg width="24" height="24" viewBox="0 0 24 24" fill="none" xmlns="http://www.w3.org/2000/svg">
<path fill-rule="evenodd" clip-rule="evenodd" d="M22.9888 12.5C22.7274 18.3431 17.9076 23 12 23C6.09244 23 1.27256 18.3431 1.01116 12.5H6.69259C6.81847 15.4659 9.26276 17.8317 12.2596 17.8317C15.2565 17.8317 17.7008 15.4659 17.8267 12.5H22.9888ZM22.9888 11.5H17.7804C17.4099 8.78195 15.0794 6.6875 12.2596 6.6875C9.43989 6.6875 7.10935 8.78195 6.73885 11.5H1.01116C1.27256 5.65693 6.09244 1 12 1C17.9076 1 22.7274 5.65693 22.9888 11.5ZM24 12C24 18.6274 18.6274 24 12 24C5.37258 24 0 18.6274 0 12C0 5.37258 5.37258 0 12 0C18.6274 0 24 5.37258 24 12ZM16.8317 12.2596C16.8317 14.7847 14.7847 16.8317 12.2596 16.8317C9.73451 16.8317 7.6875 14.7847 7.6875 12.2596C7.6875 9.73451 9.73451 7.6875 12.2596 7.6875C14.7847 7.6875 16.8317 9.73451 16.8317 12.2596ZM12.2573 14.6026C13.5515 14.6026 14.6006 13.5534 14.6006 12.2593C14.6006 10.9651 13.5515 9.91602 12.2573 9.91602C10.9632 9.91602 9.91406 10.9651 9.91406 12.2593C9.91406 13.5534 10.9632 14.6026 12.2573 14.6026ZM12.2573 15.6026C14.1038 15.6026 15.6006 14.1057 15.6006 12.2593C15.6006 10.4129 14.1038 8.91602 12.2573 8.91602C10.4109 8.91602 8.91406 10.4129 8.91406 12.2593C8.91406 14.1057 10.4109 15.6026 12.2573 15.6026Z" fill="#222222"/>
</svg>
