<svg width="22" height="22" viewBox="0 0 22 22" fill="none" xmlns="http://www.w3.org/2000/svg">
<path fill-rule="evenodd" clip-rule="evenodd" d="M4.66699 0.5C4.39085 0.5 4.16699 0.723858 4.16699 1V2.5H3.16699C2.37134 2.5 1.60828 2.81607 1.04567 3.37868C0.483063 3.94129 0.166992 4.70435 0.166992 5.5C0.166992 6.29565 0.483063 7.05871 1.04567 7.62132C1.60828 8.18393 2.37134 8.5 3.16699 8.5H4.18624C4.30507 10.041 4.97021 11.4956 6.0708 12.5962C6.67702 13.2024 7.39067 13.6765 8.16699 14V16.0002C8.16699 16.2499 7.93153 16.5518 7.48843 16.7557C6.2072 17.3423 5.33351 18.8099 5.18837 20.5H2.66699C2.39085 20.5 2.16699 20.7239 2.16699 21C2.16699 21.2761 2.39085 21.5 2.66699 21.5H5.65436L5.66699 21.5002L5.67962 21.5H15.6544L15.667 21.5002L15.6796 21.5H18.667C18.9431 21.5 19.167 21.2761 19.167 21C19.167 20.7239 18.9431 20.5 18.667 20.5H16.1456C16.0005 18.8097 15.1266 17.3419 13.8451 16.7555C13.4023 16.5516 13.167 16.2499 13.167 16.0002V14C13.9433 13.6765 14.657 13.2024 15.2632 12.5962C16.3638 11.4956 17.0289 10.041 17.1477 8.5H18.167C18.9626 8.5 19.7257 8.18393 20.2883 7.62132C20.8509 7.05871 21.167 6.29565 21.167 5.5C21.167 4.70435 20.8509 3.94129 20.2883 3.37868C19.7257 2.81607 18.9626 2.5 18.167 2.5H17.167V1C17.167 0.723858 16.9431 0.5 16.667 0.5H4.66699ZM12.167 14.3246C11.6794 14.4402 11.1763 14.5 10.667 14.5C10.1577 14.5 9.65458 14.4402 9.16699 14.3246V16.0002C9.16699 16.8503 8.46259 17.4083 7.90594 17.6644L7.90505 17.6648C7.05176 18.0553 6.33384 19.1172 6.1923 20.5H15.1417C15.0001 19.1172 14.2822 18.0553 13.4289 17.6648L13.428 17.6644C12.8714 17.4083 12.167 16.8503 12.167 16.0002V14.3246ZM13.8451 16.7555L13.637 17.2102L13.8459 16.7559C13.8456 16.7558 13.8454 16.7556 13.8451 16.7555ZM3.16699 3.5H4.16699V7.5H3.16699C2.63656 7.5 2.12785 7.28929 1.75278 6.91421C1.37771 6.53914 1.16699 6.03043 1.16699 5.5C1.16699 4.96957 1.37771 4.46086 1.75278 4.08579C2.12785 3.71071 2.63656 3.5 3.16699 3.5ZM5.16699 1.5V3V8C5.16699 9.45869 5.74646 10.8576 6.7779 11.8891C7.80936 12.9205 9.2083 13.5 10.667 13.5C12.1257 13.5 13.5246 12.9205 14.5561 11.8891C15.5875 10.8576 16.167 9.45869 16.167 8V3V1.5H5.16699ZM18.167 7.5H17.167V3.5H18.167C18.6974 3.5 19.2061 3.71071 19.5812 4.08579C19.9563 4.46086 20.167 4.96957 20.167 5.5C20.167 6.03043 19.9563 6.53914 19.5812 6.91421C19.2061 7.28929 18.6974 7.5 18.167 7.5Z" fill="#222222"/>
</svg>
