<svg width="33" height="34" viewBox="0 0 33 34" fill="none" xmlns="http://www.w3.org/2000/svg">
<path d="M3.56759 5.74825C3.56759 5.76876 3.55733 5.77901 3.53683 5.77901C3.53683 5.77901 3.53683 5.76876 3.53683 5.74825C3.53683 5.74825 3.54708 5.74825 3.56759 5.74825ZM3.53683 5.74825C3.51633 5.74825 3.50608 5.738 3.50608 5.7175C3.50608 5.738 3.51633 5.74825 3.53683 5.74825ZM4.2442 16.8508L4.21344 16.8201L4.2442 16.8508ZM2.95249 26.0466V26.0158V26.0466ZM3.07551 26.0466V26.0773V26.0466ZM2.92173 25.9851C2.94223 25.9646 2.95249 25.9748 2.95249 26.0158C2.95249 25.9953 2.94223 25.9851 2.92173 25.9851ZM3.41381 26.4464C3.41381 26.4259 3.40356 26.4157 3.38306 26.4157L3.41381 26.4464ZM3.75212 26.877C3.73161 26.877 3.72136 26.8667 3.72136 26.8462L3.75212 26.877ZM3.87514 26.9077H3.84438H3.87514ZM19.4064 0.858201C19.4474 0.919711 19.4577 0.991472 19.4372 1.07349C19.4372 1.135 19.4474 1.20676 19.468 1.28877C19.3859 1.32978 19.3347 1.40154 19.3142 1.50406C19.3142 1.58607 19.3039 1.65783 19.2834 1.71934C19.2424 1.92438 19.1604 2.10891 19.0374 2.27293C18.9349 2.43696 18.8323 2.59074 18.7298 2.73426C18.7503 2.79577 18.7401 2.84703 18.6991 2.88803C18.6786 2.92904 18.6683 2.99055 18.6683 3.07256C18.6888 3.03156 18.6786 3.03156 18.6376 3.07256C18.6171 3.09307 18.5863 3.08282 18.5453 3.04181L18.5145 3.19558H18.4223C18.3813 3.2571 18.3403 3.33911 18.2993 3.44163C18.2583 3.52364 18.2172 3.5954 18.1762 3.65691H18.207C18.166 3.69792 18.1352 3.69792 18.1147 3.65691C18.1147 3.69792 18.084 3.74918 18.0225 3.81069C17.9815 3.8722 17.9815 3.92345 18.0225 3.96446L17.961 4.02597C18.002 4.00547 18.0532 4.00547 18.1147 4.02597C18.0737 4.14899 18.0532 4.28226 18.0532 4.42579C18.0737 4.40528 18.1045 4.39503 18.1455 4.39503C18.1045 4.39503 18.0737 4.40528 18.0532 4.42579C17.9507 4.5078 17.8174 4.65133 17.6534 4.85636C17.4894 5.04089 17.3766 5.18441 17.3151 5.28693C17.1511 5.45096 17.0075 5.61498 16.8845 5.77901C16.7615 5.92253 16.6795 6.10706 16.6385 6.3326C16.6385 6.37361 16.6282 6.41461 16.6077 6.45562C16.6077 6.47612 16.6282 6.50688 16.6692 6.54789C16.6897 6.54789 16.6692 6.56839 16.6077 6.6094C16.5667 6.6299 16.5155 6.66065 16.454 6.70166C16.3924 6.74267 16.3617 6.82468 16.3617 6.9477V6.97846C16.3207 7.06047 16.3002 7.11173 16.3002 7.13223H16.3309C16.3104 7.17324 16.3002 7.2245 16.3002 7.28601C16.3002 7.34752 16.2797 7.40903 16.2387 7.47054L16.2694 7.43978C16.2694 7.43978 16.2592 7.45003 16.2387 7.47054C16.1567 7.65507 16.0644 7.8396 15.9619 8.02413C15.8799 8.20866 15.7876 8.38294 15.6851 8.54697C15.6851 8.62898 15.6646 8.70074 15.6236 8.76225C15.5826 8.80326 15.5518 8.86477 15.5313 8.94678C15.5518 8.90577 15.5416 8.90577 15.5005 8.94678C15.4595 8.98779 15.4185 8.99804 15.3775 8.97754L15.316 9.16207C15.316 9.16207 15.2955 9.17232 15.2545 9.19282C15.2135 9.27483 15.1622 9.37735 15.1007 9.50037C15.0392 9.60289 14.9777 9.70541 14.9162 9.80792L14.9777 9.77717C14.9572 9.81817 14.9265 9.84893 14.8854 9.86943C14.8649 9.88994 14.8444 9.87968 14.8239 9.83868C14.8239 9.87968 14.8034 9.93094 14.7624 9.99245C14.7214 10.054 14.7214 10.1257 14.7624 10.2077L14.7009 10.2385H14.9162C14.8547 10.3205 14.8137 10.4128 14.7932 10.5153C14.7727 10.5973 14.7419 10.6896 14.7009 10.7921C14.7624 10.7716 14.8239 10.7408 14.8854 10.6998C14.8034 10.7408 14.7522 10.7613 14.7317 10.7613C14.6907 10.8228 14.6292 10.9151 14.5471 11.0381C14.4651 11.1406 14.3831 11.2534 14.3011 11.3764C14.2191 11.4995 14.1371 11.6122 14.0551 11.7147C13.973 11.8173 13.9013 11.8993 13.8398 11.9608C13.6552 12.1863 13.4912 12.4221 13.3477 12.6681C13.2042 12.8937 13.1119 13.1295 13.0709 13.3755C13.0709 13.4165 13.0606 13.4575 13.0401 13.4985C13.0401 13.5395 13.0401 13.5805 13.0401 13.6215C13.0812 13.6626 13.0401 13.7241 12.9171 13.8061C12.7941 13.8881 12.6813 13.9086 12.5788 13.8676C12.6813 14.0931 12.6711 14.2879 12.5481 14.4519C12.425 14.5955 12.2713 14.7185 12.0867 14.821V14.8518H12.1175C12.097 14.8928 12.0765 14.9338 12.056 14.9748C12.0355 14.9953 12.0047 15.026 11.9637 15.067C11.9842 15.1491 11.9842 15.2311 11.9637 15.3131C11.9432 15.3951 11.933 15.4771 11.933 15.5591C11.8509 15.6616 11.7997 15.7642 11.7792 15.8667C11.7792 15.9692 11.7689 16.0717 11.7484 16.1742V16.1435C11.6254 16.4305 11.5024 16.6971 11.3794 16.9431C11.2564 17.1891 11.1128 17.4352 10.9488 17.6812C10.9078 17.7632 10.8668 17.835 10.8258 17.8965C10.8053 17.958 10.7848 18.04 10.7643 18.1425C10.7848 18.081 10.7745 18.081 10.7335 18.1425C10.713 18.1836 10.6823 18.1836 10.6412 18.1425L10.549 18.3578C10.508 18.3168 10.4875 18.3168 10.4875 18.3578C10.4055 18.4603 10.3337 18.5731 10.2722 18.6961C10.2312 18.7987 10.1697 18.9012 10.0877 19.0037H10.1184C10.0979 19.0447 10.0672 19.0754 10.0261 19.096C10.0056 19.1165 9.99539 19.1062 9.99539 19.0652C9.97489 19.1267 9.94414 19.1985 9.90313 19.2805C9.86212 19.342 9.86212 19.4035 9.90313 19.465L9.81086 19.5265C9.89288 19.506 9.95439 19.4958 9.99539 19.4958C9.95439 19.5983 9.92363 19.7008 9.90313 19.8033C9.88263 19.9058 9.85187 20.0084 9.81086 20.1109C9.87237 20.0699 9.91338 20.0289 9.93388 19.9878L9.81086 20.1109C9.68784 20.2134 9.52382 20.4184 9.31878 20.726C9.11375 21.013 8.97023 21.2283 8.88821 21.3718C8.66267 21.6179 8.45764 21.8639 8.27311 22.1099C8.10908 22.3355 7.99631 22.5815 7.93481 22.8481C7.93481 22.9711 7.92455 23.0634 7.90405 23.1249C7.92455 23.1454 7.88355 23.2069 7.78103 23.3094C7.67851 23.4119 7.55549 23.4427 7.41197 23.4017C7.55549 23.6272 7.54524 23.8425 7.38121 24.0475C7.23769 24.232 7.06341 24.3858 6.85838 24.5088C6.89938 24.4268 6.95064 24.3448 7.01215 24.2628C7.07366 24.1808 7.12492 24.0885 7.16593 23.986L7.13517 24.0783C7.09417 23.9758 7.05316 23.9758 7.01215 24.0783C7.05316 24.0988 7.05316 24.1603 7.01215 24.2628C6.97115 24.3038 6.93014 24.3243 6.88913 24.3243C6.86863 24.3038 6.85838 24.3243 6.85838 24.3858C6.83787 24.3653 6.80712 24.3551 6.76611 24.3551C6.72511 24.3756 6.7046 24.3858 6.7046 24.3858C6.72511 24.3653 6.71485 24.3756 6.67385 24.4166C6.65334 24.4371 6.6636 24.4678 6.7046 24.5088C6.7046 24.5498 6.6841 24.5704 6.64309 24.5704C6.64309 24.5498 6.62259 24.5396 6.58158 24.5396C6.58158 24.5806 6.55083 24.6114 6.48932 24.6319C6.44831 24.6934 6.4073 24.7446 6.3663 24.7856C6.3663 24.7856 6.34579 24.7959 6.30479 24.8164C6.3868 25.0009 6.32529 25.1444 6.12026 25.247C6.09975 25.3495 6.04849 25.4315 5.96648 25.493C5.90497 25.5545 5.82296 25.616 5.72044 25.6775C5.67943 25.78 5.65893 25.8313 5.65893 25.8313C5.65893 25.8108 5.66918 25.7698 5.68969 25.7083H5.65893V25.8928C5.57692 25.8928 5.55641 25.9133 5.59742 25.9543C5.59742 25.9543 5.61792 25.9543 5.65893 25.9543L5.59742 25.9851C5.59742 26.0056 5.57692 25.9953 5.53591 25.9543C5.4949 25.9543 5.4744 25.9851 5.4744 26.0466C5.4744 26.0876 5.4539 26.1286 5.41289 26.1696C5.37188 26.1286 5.36163 26.0979 5.38214 26.0773C5.40264 26.0568 5.39239 26.0466 5.35138 26.0466C5.37188 26.0056 5.38214 26.0056 5.38214 26.0466C5.40264 26.0671 5.42314 26.0568 5.44365 26.0158C5.42314 25.9953 5.37188 25.9851 5.28987 25.9851C5.28987 26.0056 5.27962 26.0261 5.25911 26.0466C5.23861 26.0671 5.22836 26.0979 5.22836 26.1389C5.22836 26.1389 5.23861 26.1491 5.25911 26.1696C5.25911 26.1901 5.23861 26.2004 5.1976 26.2004C5.1771 26.2004 5.1771 26.2209 5.1976 26.2619C5.1976 26.2619 5.16685 26.2619 5.10534 26.2619V26.3541C5.04383 26.4157 5.00282 26.4259 4.98232 26.3849C4.94131 26.4874 4.94131 26.5284 4.98232 26.5079C4.94131 26.5489 4.90031 26.5592 4.8593 26.5387C4.8388 26.4977 4.81829 26.4567 4.79779 26.4157C4.77729 26.4567 4.76703 26.5182 4.76703 26.6002C4.78754 26.6617 4.78754 26.6924 4.76703 26.6924C4.76703 26.713 4.75678 26.6924 4.73628 26.6309C4.73628 26.5694 4.73628 26.5182 4.73628 26.4772L4.70552 26.5079C4.70552 26.4874 4.71578 26.5182 4.73628 26.6002C4.77729 26.6822 4.78754 26.7232 4.76703 26.7232C4.74653 26.7232 4.73628 26.7335 4.73628 26.754C4.73628 26.754 4.74653 26.7642 4.76703 26.7847L4.73628 26.8155C4.73628 26.795 4.72603 26.7745 4.70552 26.754C4.66452 26.754 4.64401 26.7847 4.64401 26.8462H4.67477C4.67477 26.8872 4.65427 26.9077 4.61326 26.9077C4.57225 26.8872 4.562 26.877 4.5825 26.877C4.60301 26.8565 4.59276 26.8462 4.55175 26.8462C4.55175 26.8052 4.562 26.8052 4.5825 26.8462C4.60301 26.8667 4.62351 26.8565 4.64401 26.8155C4.60301 26.795 4.5415 26.7847 4.45948 26.7847C4.39797 26.8257 4.36722 26.8667 4.36722 26.9077C4.36722 26.9282 4.36722 26.9385 4.36722 26.9385C4.38772 26.918 4.39797 26.918 4.39797 26.9385C4.39797 26.959 4.38772 26.9692 4.36722 26.9692C4.34671 26.9692 4.34671 26.9795 4.36722 27H4.33646V27.0308V27.0615C4.29546 27.082 4.27495 27.1128 4.27495 27.1538H4.30571C4.2647 27.1948 4.2442 27.2255 4.2442 27.246C4.2647 27.2665 4.25445 27.2973 4.21344 27.3383C4.17244 27.3793 4.14168 27.3691 4.12118 27.3076C4.12118 27.2665 4.10067 27.2563 4.05967 27.2768C4.05967 27.2358 4.03916 27.1743 3.99816 27.0923C3.97765 27.0923 3.9674 27.082 3.9674 27.0615C3.9674 27.0615 3.9469 27.0718 3.90589 27.0923H3.93665C3.93665 27.1128 3.9264 27.123 3.90589 27.123C3.90589 27.123 3.90589 27.1128 3.90589 27.0923L3.84438 27.0615H3.81363V27.0308C3.81363 27.0103 3.80338 27 3.78287 27C3.78287 26.9795 3.78287 26.959 3.78287 26.9385H3.75212C3.73161 26.9385 3.72136 26.9282 3.72136 26.9077C3.74187 26.9077 3.75212 26.8975 3.75212 26.877H3.81363C3.81363 26.877 3.81363 26.8462 3.81363 26.7847C3.81363 26.7642 3.80338 26.754 3.78287 26.754C3.78287 26.754 3.78287 26.7437 3.78287 26.7232C3.74187 26.7437 3.68036 26.7232 3.59834 26.6617C3.53683 26.6002 3.48557 26.5899 3.44457 26.6309L3.47532 26.6617C3.47532 26.6617 3.46507 26.6514 3.44457 26.6309H3.41381H3.38306V26.6002C3.28054 26.6412 3.19853 26.6104 3.13702 26.5079C3.09601 26.3849 3.04475 26.3644 2.98324 26.4464L3.014 26.4772C3.014 26.4772 2.99349 26.4772 2.95249 26.4772C2.95249 26.4567 2.94223 26.4567 2.92173 26.4772C2.92173 26.4977 2.92173 26.4772 2.92173 26.4157C2.94223 26.3541 2.95249 26.2721 2.95249 26.1696V26.2004C2.95249 26.2004 2.94223 26.1901 2.92173 26.1696C2.90123 26.2106 2.89098 26.2209 2.89098 26.2004C2.89098 26.1799 2.90123 26.1491 2.92173 26.1081C2.92173 26.0876 2.92173 26.0773 2.92173 26.0773C2.94223 26.0773 2.95249 26.0671 2.95249 26.0466V26.0773V26.0466C2.97299 26.0261 2.99349 26.0158 3.014 26.0158C3.014 25.9748 3.02425 25.9338 3.04475 25.8928C3.06525 25.8518 3.07551 25.8211 3.07551 25.8006C3.07551 25.7595 3.06525 25.7185 3.04475 25.6775C3.04475 25.616 3.04475 25.5648 3.04475 25.5238C2.98324 25.4622 2.93198 25.3597 2.89098 25.2162C2.87047 25.0522 2.80896 24.8984 2.70645 24.7549C2.74745 24.5704 2.74745 24.4063 2.70645 24.2628C2.66544 24.1193 2.64493 23.9655 2.64493 23.8015C2.58342 23.4939 2.55267 23.1761 2.55267 22.8481C2.53217 22.8481 2.52191 22.8378 2.52191 22.8173V22.7866H2.49116C2.36814 22.2125 2.31688 21.6589 2.33738 21.1258H2.30663H2.27587C2.27587 21.1053 2.23487 21.0745 2.15285 21.0335H2.1221C2.1221 21.054 2.11185 21.0643 2.09134 21.0643C2.09134 21.0438 2.09134 21.0233 2.09134 21.0028V20.972C2.09134 20.931 2.1016 20.9208 2.1221 20.9413C2.08109 20.8592 2.07084 20.8182 2.09134 20.8182C2.09134 20.7362 2.1016 20.685 2.1221 20.6645C2.1221 20.726 2.13235 20.767 2.15285 20.7875C2.17336 20.767 2.17336 20.7567 2.15285 20.7567C2.13235 20.7362 2.13235 20.7157 2.15285 20.6952C2.17336 20.6747 2.17336 20.6645 2.15285 20.6645C2.13235 20.6645 2.1221 20.6542 2.1221 20.6337C2.1221 20.5312 2.1426 20.4594 2.18361 20.4184C2.18361 20.3774 2.16311 20.3364 2.1221 20.2954C2.1221 20.3979 2.09134 20.4902 2.02983 20.5722C2.05034 20.5517 2.05034 20.5209 2.02983 20.4799C2.07084 20.4799 2.09134 20.4697 2.09134 20.4492L2.06059 20.4184H2.09134L2.06059 20.3877C2.06059 20.4287 2.02983 20.4184 1.96832 20.3569C1.92732 20.3364 1.86581 20.2954 1.78379 20.2339C1.70178 20.1519 1.66077 20.1006 1.66077 20.0801C1.66077 20.0596 1.65052 20.0391 1.63002 20.0186C1.67102 20.0186 1.67102 20.0084 1.63002 19.9878C1.60951 19.9673 1.61977 19.9468 1.66077 19.9263C1.66077 19.8853 1.65052 19.8648 1.63002 19.8648C1.60951 19.8238 1.61977 19.7931 1.66077 19.7726C1.70178 19.7521 1.70178 19.7213 1.66077 19.6803L1.72228 19.6495C1.72228 19.6085 1.71203 19.5983 1.69153 19.6188C1.67102 19.6188 1.66077 19.5983 1.66077 19.5573C1.70178 19.5163 1.72228 19.4753 1.72228 19.4343C1.68128 19.2907 1.67102 19.1575 1.69153 19.0344C1.71203 18.8909 1.72228 18.7576 1.72228 18.6346C1.66077 18.6346 1.64027 18.6551 1.66077 18.6961C1.68128 18.7371 1.67102 18.7576 1.63002 18.7576C1.60951 18.5321 1.57876 18.3066 1.53775 18.081C1.49675 17.8555 1.45574 17.63 1.41473 17.4044C1.39423 17.3224 1.40448 17.2506 1.44549 17.1891C1.48649 17.1071 1.507 17.0149 1.507 16.9123V16.9739C1.5275 16.9328 1.48649 16.8713 1.38398 16.7893C1.30196 16.6868 1.28146 16.615 1.32247 16.574C1.34297 16.492 1.36347 16.451 1.38398 16.451C1.40448 16.4305 1.39423 16.3895 1.35322 16.328C1.39423 16.287 1.40448 16.246 1.38398 16.205C1.34297 16.123 1.32247 16.0717 1.32247 16.0512C1.30196 15.9692 1.27121 15.8257 1.2302 15.6206C1.1892 15.6616 1.15844 15.6719 1.13794 15.6514C1.11743 15.6104 1.15844 15.5386 1.26096 15.4361C1.26096 15.3951 1.24045 15.3746 1.19945 15.3746C1.17894 15.3541 1.17894 15.3233 1.19945 15.2823C1.11743 15.2413 1.05592 15.1798 1.01492 15.0978C0.97391 14.9338 0.97391 14.7492 1.01492 14.5442C1.05592 14.3187 1.07643 14.1136 1.07643 13.9291C1.07643 13.9086 1.06618 13.8881 1.04567 13.8676C1.04567 13.8471 1.02517 13.7753 0.984162 13.6523C0.963658 13.5293 0.932903 13.4063 0.891897 13.2832C0.85089 13.1397 0.809883 13.0167 0.768876 12.9142C0.748373 12.7912 0.758625 12.7194 0.799631 12.6989C0.779128 12.6989 0.768876 12.6886 0.768876 12.6681C0.72787 12.5656 0.717618 12.4734 0.738121 12.3913C0.779128 12.3093 0.78938 12.2171 0.768876 12.1146V12.1453C0.707366 11.9608 0.656108 11.7762 0.615101 11.5917C0.594598 11.4072 0.563843 11.2329 0.522836 11.0689C0.563843 10.9869 0.584346 10.9151 0.584346 10.8536C0.481829 10.4845 0.399816 10.095 0.338306 9.6849C0.297299 9.50037 0.266544 9.31584 0.24604 9.13131C0.24604 8.92628 0.225537 8.7315 0.18453 8.54697C0.205034 8.28042 0.215285 8.01388 0.215285 7.74733C0.235789 7.46029 0.266544 7.18349 0.307551 6.91695H0.276796C0.317802 6.85544 0.328054 6.81443 0.307551 6.79393C0.287047 6.77342 0.297299 6.73242 0.338306 6.67091L0.369061 6.64015C0.348557 6.61965 0.338306 6.59914 0.338306 6.57864V6.54789C0.338306 6.54789 0.328054 6.53764 0.307551 6.51713C0.307551 6.47612 0.317802 6.43512 0.338306 6.39411C0.358809 6.3326 0.358809 6.28134 0.338306 6.24034V6.27109C0.317802 6.16857 0.307551 6.07631 0.307551 5.9943C0.328054 5.89178 0.328054 5.79951 0.307551 5.7175C0.369061 5.697 0.399816 5.65599 0.399816 5.59448C0.358809 5.51247 0.328054 5.4202 0.307551 5.31768C0.307551 5.19466 0.307551 5.0819 0.307551 4.97938C0.287047 4.87686 0.287047 4.7846 0.307551 4.70258C0.328054 4.60007 0.317802 4.49755 0.276796 4.39503C0.317802 4.25151 0.348557 4.11824 0.369061 3.99522C0.389564 3.85169 0.430571 3.71842 0.492081 3.5954H0.461326C0.522836 3.55439 0.543339 3.53389 0.522836 3.53389C0.502333 3.53389 0.533088 3.51339 0.615101 3.47238C0.656108 3.43137 0.66636 3.43137 0.645856 3.47238C0.645856 3.51339 0.66636 3.53389 0.707366 3.53389C0.748373 3.49288 0.768876 3.46213 0.768876 3.44163H0.738121C0.779128 3.40062 0.78938 3.38012 0.768876 3.38012C0.768876 3.35961 0.78938 3.32886 0.830387 3.28785C0.871393 3.24684 0.902148 3.25709 0.922652 3.31861C0.943155 3.35961 0.97391 3.36986 1.01492 3.34936C1.03542 3.39037 1.05592 3.43137 1.07643 3.47238C1.09693 3.49288 1.10718 3.54414 1.10718 3.62616C1.2097 3.64666 1.27121 3.68767 1.29171 3.74918C1.33272 3.79018 1.37373 3.83119 1.41473 3.8722C1.39423 3.95421 1.40448 4.02597 1.44549 4.08748C1.507 4.12849 1.548 4.1695 1.56851 4.2105H1.59926C1.70178 4.47705 1.77354 4.7846 1.81455 5.13315C1.83505 5.15366 1.8453 5.19466 1.8453 5.25617C1.86581 5.25617 1.86581 5.22542 1.8453 5.16391C1.8453 5.18441 1.87606 5.16391 1.93757 5.1024C1.89656 5.1024 1.87606 5.07164 1.87606 5.01013C1.87606 4.94862 1.89656 4.91787 1.93757 4.91787C1.91707 4.85636 1.89656 4.8051 1.87606 4.76409C1.87606 4.70258 1.85556 4.70258 1.81455 4.76409C1.81455 4.64107 1.85556 4.62057 1.93757 4.70258V4.67183C1.91707 4.58982 1.90681 4.51805 1.90681 4.45654C1.92732 4.39503 1.92732 4.32327 1.90681 4.24126C1.92732 4.13874 1.94782 4.04647 1.96832 3.96446C2.00933 3.86195 2.07084 3.75943 2.15285 3.65691H2.1221C2.16311 3.6159 2.17336 3.5954 2.15285 3.5954C2.15285 3.5954 2.18361 3.5749 2.24512 3.53389C2.28613 3.51339 2.30663 3.52364 2.30663 3.56465C2.30663 3.58515 2.32713 3.5954 2.36814 3.5954C2.36814 3.5954 2.37839 3.60565 2.39889 3.62616C2.4399 3.58515 2.4604 3.53389 2.4604 3.47238C2.48091 3.41087 2.50141 3.35961 2.52191 3.31861C2.56292 3.2776 2.57317 3.2571 2.55267 3.2571C2.53217 3.2571 2.56292 3.23659 2.64493 3.19558C2.66544 3.15458 2.67569 3.15458 2.67569 3.19558C2.69619 3.23659 2.72695 3.2571 2.76796 3.2571C2.76796 3.2981 2.77821 3.33911 2.79871 3.38012C2.83972 3.42112 2.87047 3.46213 2.89098 3.50314C2.95249 3.52364 2.99349 3.55439 3.014 3.5954C3.055 3.63641 3.09601 3.67741 3.13702 3.71842C3.09601 3.77993 3.09601 3.84144 3.13702 3.90295C3.19853 3.94396 3.24978 3.98497 3.29079 4.02597H3.32155C3.38306 4.1695 3.42406 4.31302 3.44457 4.45654C3.46507 4.57956 3.47532 4.70258 3.47532 4.8256C3.51633 4.86661 3.53683 4.90762 3.53683 4.94862C3.53683 4.98963 3.55733 5.03064 3.59834 5.07164C3.57784 5.05114 3.56759 5.06139 3.56759 5.1024C3.56759 5.1229 3.54708 5.1229 3.50608 5.1024V5.22542C3.48557 5.20492 3.47532 5.20492 3.47532 5.22542C3.47532 5.26643 3.47532 5.32794 3.47532 5.40995C3.49582 5.49196 3.49582 5.56372 3.47532 5.62523H3.50608V5.65599C3.50608 5.67649 3.50608 5.68675 3.50608 5.68675V5.7175C3.50608 5.738 3.49582 5.74825 3.47532 5.74825C3.49582 5.78926 3.52658 5.83027 3.56759 5.87128C3.56759 5.85077 3.57784 5.84052 3.59834 5.84052C3.59834 5.84052 3.58809 5.85077 3.56759 5.87128H3.59834L3.53683 5.93278C3.57784 5.89178 3.61885 5.87128 3.65985 5.87128C3.70086 5.9943 3.75212 6.08656 3.81363 6.14807C3.81363 6.10706 3.82388 6.07631 3.84438 6.0558C3.84438 6.09681 3.83413 6.12757 3.81363 6.14807C3.75212 6.25059 3.72136 6.40436 3.72136 6.6094C3.72136 6.6299 3.73161 6.6504 3.75212 6.67091V6.70166C3.71111 6.70166 3.70086 6.71191 3.72136 6.73242C3.76237 6.75292 3.76237 6.77342 3.72136 6.79393C3.72136 6.81443 3.74187 6.82468 3.78287 6.82468C3.80338 6.86569 3.78287 6.9067 3.72136 6.9477C3.68036 6.96821 3.68036 6.99896 3.72136 7.03997H3.65985C3.65985 7.08097 3.6701 7.10148 3.69061 7.10148C3.71111 7.08097 3.72136 7.09123 3.72136 7.13223C3.68036 7.17324 3.65985 7.21425 3.65985 7.25525C3.65985 7.41928 3.6496 7.53205 3.6291 7.59356C3.6291 7.63457 3.6496 7.67557 3.69061 7.71658C3.73161 7.73708 3.75212 7.76784 3.75212 7.80884C3.77262 7.82935 3.79312 7.84985 3.81363 7.87035C3.83413 7.87035 3.83413 7.89086 3.81363 7.93186C3.79312 7.95237 3.75212 7.98312 3.69061 8.02413V8.1779C3.85463 8.25992 3.85463 8.37269 3.69061 8.51621C3.71111 8.61873 3.72136 8.7315 3.72136 8.85452C3.74187 8.95703 3.75212 9.0698 3.75212 9.19282C3.75212 9.27483 3.72136 9.3466 3.65985 9.40811C3.61885 9.44911 3.59834 9.51062 3.59834 9.59264C3.57784 9.61314 3.60859 9.67465 3.69061 9.77717C3.77262 9.85918 3.79312 9.92069 3.75212 9.9617C3.73161 10.0232 3.71111 10.0642 3.69061 10.0847C3.69061 10.0847 3.69061 10.1257 3.69061 10.2077C3.6496 10.2487 3.63935 10.2898 3.65985 10.3308C3.68036 10.3513 3.69061 10.3718 3.69061 10.3923C3.69061 10.4128 3.70086 10.4435 3.72136 10.4845C3.74187 10.5665 3.75212 10.7101 3.75212 10.9151C3.79312 10.8536 3.81363 10.8433 3.81363 10.8843C3.83413 10.9254 3.79312 10.9971 3.69061 11.0996C3.69061 11.1406 3.70086 11.1611 3.72136 11.1611C3.74187 11.1611 3.74187 11.1816 3.72136 11.2227L3.90589 11.4072C3.9264 11.5712 3.90589 11.7557 3.84438 11.9608C3.80338 12.1453 3.77262 12.3401 3.75212 12.5451V12.6066C3.73161 12.6271 3.73161 12.6989 3.75212 12.8219C3.79312 12.9244 3.82388 13.0372 3.84438 13.1602C3.88539 13.2832 3.91614 13.4063 3.93665 13.5293C3.95715 13.6318 3.9469 13.6831 3.90589 13.6831C3.9264 13.6831 3.9469 13.6933 3.9674 13.7138C4.00841 13.8163 4.00841 13.8983 3.9674 13.9599C3.9264 14.0214 3.91614 14.1034 3.93665 14.2059C3.97765 14.2674 3.99816 14.3597 3.99816 14.4827C4.01866 14.4212 4.02891 14.3494 4.02891 14.2674V14.4519V14.575C4.02891 14.7185 4.02891 14.8415 4.02891 14.944C4.02891 15.0465 4.03916 15.1491 4.05967 15.2516C3.99816 15.3541 3.97765 15.4258 3.99816 15.4669C3.99816 15.5284 4.00841 15.5694 4.02891 15.5899L4.12118 15.6821L4.18269 15.7436L4.15193 15.7744H4.18269C4.14168 15.7744 4.13143 15.7847 4.15193 15.8052C4.17244 15.8257 4.16218 15.8359 4.12118 15.8359C4.12118 15.8359 4.13143 15.8462 4.15193 15.8667C4.17244 15.8872 4.16218 15.9077 4.12118 15.9282C4.10067 15.9282 4.11093 15.9487 4.15193 15.9897H4.09042C4.09042 16.0102 4.10067 16.0204 4.12118 16.0204C4.14168 16.0204 4.15193 16.0409 4.15193 16.082C4.13143 16.082 4.12118 16.0922 4.12118 16.1127C4.10067 16.1742 4.09042 16.2562 4.09042 16.3588C4.11093 16.4408 4.12118 16.5228 4.12118 16.6048V16.7586L4.15193 16.7893H4.18269C4.18269 16.7688 4.19294 16.7688 4.21344 16.7893V16.8201H4.18269H4.21344C4.19294 16.8406 4.17244 16.8508 4.15193 16.8508C4.17244 16.8713 4.17244 16.8918 4.15193 16.9123C4.15193 16.9328 4.16218 16.9431 4.18269 16.9431C4.18269 17.0046 4.17244 17.0354 4.15193 17.0354V17.2506C4.15193 17.2301 4.15193 17.2199 4.15193 17.2199C4.17244 17.1994 4.18269 17.1789 4.18269 17.1584C4.18269 17.1584 4.20319 17.1789 4.2442 17.2199H4.15193V17.2814V17.2506V17.3122C4.17244 17.2917 4.20319 17.2917 4.2442 17.3122L4.21344 17.3429C4.23395 17.3429 4.27495 17.3839 4.33646 17.4659C4.41848 17.5274 4.45948 17.5684 4.45948 17.589V17.6197H4.49024C4.44923 17.6197 4.43898 17.63 4.45948 17.6505C4.47999 17.671 4.46974 17.6812 4.42873 17.6812C4.42873 17.7017 4.43898 17.712 4.45948 17.712C4.47999 17.753 4.46974 17.7837 4.42873 17.8042C4.38772 17.8042 4.38772 17.8247 4.42873 17.8657L4.33646 17.8965C4.33646 17.917 4.34671 17.9273 4.36722 17.9273C4.40822 17.9068 4.41848 17.917 4.39797 17.958L4.30571 18.0503C4.30571 18.1528 4.2852 18.2451 4.2442 18.3271C4.22369 18.4091 4.22369 18.5014 4.2442 18.6039C4.2852 18.5834 4.29546 18.5629 4.27495 18.5424C4.25445 18.5219 4.2647 18.5116 4.30571 18.5116C4.2852 18.6756 4.2852 18.8397 4.30571 19.0037C4.34671 19.1677 4.35697 19.342 4.33646 19.5265C4.33646 19.588 4.31596 19.6495 4.27495 19.7111C4.23395 19.7521 4.20319 19.7931 4.18269 19.8341C4.18269 19.8751 4.18269 19.9058 4.18269 19.9263C4.20319 19.9263 4.21344 19.9366 4.21344 19.9571C4.27495 20.0186 4.30571 20.0699 4.30571 20.1109C4.34671 20.2134 4.35697 20.2646 4.33646 20.2646C4.33646 20.2646 4.34671 20.2749 4.36722 20.2954C4.36722 20.3364 4.35697 20.3877 4.33646 20.4492C4.33646 20.4902 4.34671 20.5312 4.36722 20.5722V20.7567C4.38772 20.7567 4.39797 20.7772 4.39797 20.8182C4.39797 20.9618 4.40822 21.0643 4.42873 21.1258C4.42873 21.1463 4.42873 21.1565 4.42873 21.1565C4.44923 21.1565 4.45948 21.1668 4.45948 21.1873C4.47999 21.2283 4.44923 21.3308 4.36722 21.4948C4.40822 21.5974 4.42873 21.6999 4.42873 21.8024C4.44923 21.8844 4.46974 21.9767 4.49024 22.0792C4.49024 22.1612 4.49024 22.2432 4.49024 22.3252C4.49024 22.3867 4.50049 22.4688 4.52099 22.5713C4.562 22.4688 4.61326 22.3867 4.67477 22.3252C4.73628 22.2432 4.78754 22.1715 4.82854 22.1099C4.76703 22.0689 4.72603 22.0792 4.70552 22.1407C4.68502 22.2022 4.66452 22.2227 4.64401 22.2022C4.74653 22.0382 4.8388 21.8639 4.92081 21.6794C5.00282 21.4948 5.09509 21.3103 5.1976 21.1258C5.30012 20.9208 5.38214 20.7362 5.44365 20.5722C5.52566 20.3877 5.61792 20.2134 5.72044 20.0494C5.80245 19.9058 5.89472 19.7931 5.99724 19.7111C6.09975 19.629 6.18177 19.506 6.24328 19.342V19.4035C6.26378 19.3625 6.29454 19.2395 6.33554 19.0344C6.39705 18.8294 6.44831 18.7269 6.48932 18.7269C6.57133 18.6244 6.62259 18.5731 6.64309 18.5731C6.6636 18.5526 6.69435 18.4808 6.73536 18.3578C6.81737 18.2758 6.86863 18.2143 6.88913 18.1733C6.93014 18.1323 6.95064 18.081 6.95064 18.0195C6.97115 17.958 6.99165 17.9068 7.01215 17.8657C7.05316 17.7632 7.10442 17.6505 7.16593 17.5274C7.24794 17.4044 7.32996 17.2814 7.41197 17.1584C7.32996 17.2199 7.2992 17.2096 7.3197 17.1276C7.34021 17.0456 7.43247 16.9533 7.5965 16.8508C7.63751 16.7893 7.64776 16.7483 7.62725 16.7278C7.62725 16.6868 7.65801 16.6458 7.71952 16.6048C7.71952 16.5023 7.74002 16.369 7.78103 16.205C7.84254 16.0615 7.92455 15.9282 8.02707 15.8052C8.12959 15.6616 8.2321 15.5181 8.33462 15.3746C8.58066 15.067 8.81645 14.78 9.04199 14.5134C9.04199 14.4724 9.04199 14.4519 9.04199 14.4519C9.06249 14.4314 9.07274 14.4109 9.07274 14.3904C9.11375 14.3699 9.17526 14.2674 9.25727 14.0829C9.35979 13.8778 9.46231 13.6626 9.56482 13.437C9.68784 13.191 9.80061 12.9757 9.90313 12.7912C10.0056 12.6066 10.0774 12.5144 10.1184 12.5144C10.1184 12.4529 10.1184 12.4221 10.1184 12.4221C10.2209 12.2581 10.3132 12.1248 10.3952 12.0223C10.4772 11.9198 10.5695 11.7865 10.672 11.6225V11.6532C10.836 11.3662 11.0103 11.0791 11.1948 10.7921C11.3999 10.505 11.5844 10.2385 11.7484 9.99245C11.7894 9.95145 11.8407 9.91044 11.9022 9.86943C11.9637 9.82843 12.015 9.75666 12.056 9.65415C12.138 9.51062 12.22 9.37735 12.302 9.25433C12.384 9.11081 12.4866 8.95703 12.6096 8.79301C12.7121 8.62898 12.8146 8.46495 12.9171 8.30092C13.0196 8.1369 13.1222 7.97287 13.2247 7.80884C13.2862 7.74733 13.3374 7.68582 13.3785 7.62431C13.44 7.5423 13.4912 7.46029 13.5322 7.37827C13.5732 7.31676 13.6142 7.25525 13.6552 7.19374C13.6963 7.11173 13.768 7.05022 13.8705 7.00921C13.973 6.88619 14.0756 6.75292 14.1781 6.6094C14.2806 6.46587 14.3934 6.32235 14.5164 6.17883C14.6599 5.95329 14.8137 5.75851 14.9777 5.59448C15.1417 5.40995 15.3058 5.22542 15.4698 5.04089C15.6338 4.85636 15.7978 4.68208 15.9619 4.51805C16.1464 4.33352 16.3412 4.15924 16.5462 3.99522H16.5155C16.577 3.95421 16.618 3.92345 16.6385 3.90295C16.659 3.86195 16.7 3.82094 16.7615 3.77993C16.8025 3.5954 16.8435 3.52364 16.8845 3.56465C16.8845 3.54414 16.8845 3.53389 16.8845 3.53389C16.9255 3.47238 16.9563 3.43137 16.9768 3.41087C17.0178 3.36986 17.0588 3.31861 17.0998 3.2571C17.1408 3.15458 17.1921 3.05206 17.2536 2.94954C17.3356 2.84703 17.3971 2.74451 17.4381 2.64199C17.5406 2.60099 17.5919 2.57023 17.5919 2.54973C17.6329 2.44721 17.6842 2.33444 17.7457 2.21142C17.8277 2.0679 17.8994 1.94488 17.961 1.84236C18.043 1.73985 18.1147 1.63733 18.1762 1.53481C18.2583 1.43229 18.3403 1.31953 18.4223 1.19651C18.5453 1.07349 18.6786 0.950467 18.8221 0.827447C18.9656 0.704426 19.1296 0.591657 19.3142 0.48914H19.2834C19.3244 0.468637 19.3449 0.458385 19.3449 0.458385C19.3449 0.437882 19.3859 0.417378 19.468 0.396874C19.509 0.376371 19.5192 0.396875 19.4987 0.458385C19.4782 0.499391 19.4885 0.519895 19.5295 0.519895C19.4885 0.581405 19.468 0.642916 19.468 0.704426C19.468 0.745432 19.4474 0.796691 19.4064 0.858201ZM1.87606 5.34844C1.87606 5.36894 1.87606 5.3792 1.87606 5.3792C1.89656 5.3792 1.90681 5.38945 1.90681 5.40995V5.3792L1.87606 5.34844ZM1.87606 5.59448C1.87606 5.59448 1.88631 5.60473 1.90681 5.62523V5.40995C1.88631 5.40995 1.87606 5.43045 1.87606 5.47146C1.87606 5.49196 1.85556 5.49196 1.81455 5.47146L1.87606 5.62523V5.59448ZM1.90681 5.68675C1.90681 5.66624 1.91707 5.65599 1.93757 5.65599H1.90681C1.90681 5.65599 1.89656 5.64574 1.87606 5.62523V5.65599C1.87606 5.65599 1.88631 5.66624 1.90681 5.68675ZM2.27587 21.1258C2.29638 21.1258 2.30663 21.1155 2.30663 21.095C2.28613 21.095 2.27587 21.0848 2.27587 21.0643C2.27587 21.0438 2.26562 21.0335 2.24512 21.0335H2.21436C2.21436 21.013 2.20411 21.0028 2.18361 21.0028C2.18361 20.9823 2.18361 20.9618 2.18361 20.9413H2.21436L2.18361 20.9105V20.9413C2.16311 20.9413 2.15285 20.9618 2.15285 21.0028C2.23487 21.0848 2.27587 21.1155 2.27587 21.095V21.1258ZM3.07551 26.0158L3.04475 26.0466H3.07551C3.055 26.0466 3.0345 26.0671 3.014 26.1081C3.014 26.1286 3.00374 26.1491 2.98324 26.1696C2.94223 26.3336 2.93198 26.4054 2.95249 26.3849C2.95249 26.4054 2.94223 26.4259 2.92173 26.4464C2.94223 26.4464 2.95249 26.4362 2.95249 26.4157V26.3849L3.014 26.3541V26.2619C2.97299 26.2619 2.95249 26.2619 2.95249 26.2619C2.99349 26.2414 3.014 26.2106 3.014 26.1696C3.0345 26.1286 3.055 26.0979 3.07551 26.0773V26.1081V26.0158ZM3.07551 26.3541C3.07551 26.3746 3.09601 26.3849 3.13702 26.3849C3.11651 26.3849 3.09601 26.3746 3.07551 26.3541ZM3.41381 26.5387H3.38306C3.38306 26.4772 3.39331 26.4464 3.41381 26.4464V26.4157H3.38306L3.32155 26.4464V26.5079V26.5387H3.41381ZM3.41381 26.6002V26.5694V26.5387C3.39331 26.5387 3.38306 26.5489 3.38306 26.5694C3.38306 26.5899 3.39331 26.6002 3.41381 26.6002C3.41381 26.6002 3.41381 26.6104 3.41381 26.6309V26.6002ZM3.50608 26.5694C3.50608 26.5899 3.51633 26.6002 3.53683 26.6002L3.50608 26.5694ZM4.12118 16.8201C4.14168 16.8201 4.15193 16.8098 4.15193 16.7893H4.12118V16.8201ZM3.75212 26.6617V26.6924V26.6617ZM3.87514 27.0308V27V26.9692C3.83413 26.9692 3.81363 26.9692 3.81363 26.9692C3.83413 26.9692 3.84438 26.9487 3.84438 26.9077C3.86489 26.9077 3.87514 26.918 3.87514 26.9385C3.87514 26.918 3.86489 26.8975 3.84438 26.877V26.9077C3.82388 26.8872 3.81363 26.8872 3.81363 26.9077C3.81363 26.9282 3.80338 26.9385 3.78287 26.9385C3.82388 27.0205 3.85463 27.0513 3.87514 27.0308L3.84438 27.0615L3.87514 27.0308ZM3.99816 27.0615C3.99816 27.0615 3.99816 27.0718 3.99816 27.0923L4.02891 27.0615H3.99816ZM5.68969 25.5545L5.65893 25.5853V25.7083C5.65893 25.7083 5.66918 25.698 5.68969 25.6775V25.5545ZM5.72044 25.6468C5.76145 25.6058 5.7922 25.5648 5.81271 25.5238C5.85371 25.4622 5.88447 25.411 5.90497 25.37L5.87422 25.4007C5.87422 25.3802 5.86396 25.37 5.84346 25.37V25.4007C5.82296 25.4007 5.81271 25.411 5.81271 25.4315C5.81271 25.4725 5.80245 25.5033 5.78195 25.5238C5.78195 25.5443 5.76145 25.5545 5.72044 25.5545V25.6468ZM12.1175 14.7287C12.1585 14.6672 12.1995 14.616 12.2405 14.575C12.2815 14.5339 12.3225 14.4929 12.3635 14.4519L12.302 14.4827C12.2815 14.4827 12.2508 14.4622 12.2098 14.4212C12.2098 14.4417 12.1995 14.4622 12.179 14.4827C12.179 14.4827 12.179 14.4929 12.179 14.5134C12.179 14.5545 12.1688 14.5852 12.1482 14.6057C12.1482 14.6057 12.1482 14.616 12.1482 14.6365C12.1482 14.657 12.138 14.6775 12.1175 14.698C12.1175 14.698 12.1175 14.7082 12.1175 14.7287ZM2.21436 20.9413H2.18361H2.21436ZM2.09134 20.972H2.06059H2.09134ZM2.02983 20.9413C2.05034 20.9413 2.06059 20.9515 2.06059 20.972L2.02983 20.9413ZM18.0539 8.7315V8.70074V8.7315ZM18.1462 8.76225H18.1154H18.1462ZM18.0539 8.70074V8.66999V8.70074ZM19.3149 15.5591V15.5899V15.5591ZM22.0829 14.821V14.8518V14.821ZM11.2878 30.5368V30.5676V30.5368ZM32.2935 2.30369C32.314 2.30369 32.3038 2.30369 32.2628 2.30369C32.2423 2.30369 32.2423 2.31394 32.2628 2.33444C32.2218 2.33444 32.191 2.34469 32.1705 2.3652C32.15 2.3652 32.1193 2.3652 32.0782 2.3652C32.0782 2.3857 32.027 2.41646 31.9245 2.45746C31.8835 2.45746 31.822 2.47797 31.7399 2.51897C31.7194 2.51897 31.7092 2.52923 31.7092 2.54973C31.7092 2.54973 31.6989 2.54973 31.6784 2.54973L31.6169 2.61124C31.6169 2.63174 31.6067 2.65225 31.5862 2.67275C31.5862 2.71376 31.5759 2.73426 31.5554 2.73426C31.5554 2.73426 31.5452 2.75476 31.5247 2.79577C31.4836 2.79577 31.4631 2.81627 31.4631 2.85728C31.4426 2.87778 31.4221 2.88803 31.4016 2.88803C31.4016 2.88803 31.3914 2.89829 31.3709 2.91879H31.4016C31.4426 2.91879 31.4631 2.91879 31.4631 2.91879C31.4836 2.91879 31.4836 2.92904 31.4631 2.94954C31.4426 2.94954 31.4426 2.9598 31.4631 2.9803C31.4221 2.9803 31.4016 2.99055 31.4016 3.01106C31.4016 3.01106 31.3811 3.01106 31.3401 3.01106C31.3401 3.03156 31.3094 3.07257 31.2479 3.13408C31.2069 3.13408 31.1863 3.14433 31.1863 3.16483C31.1863 3.18533 31.1658 3.19558 31.1248 3.19558C31.0633 3.2571 31.0018 3.28785 30.9403 3.28785C30.8993 3.30835 30.8685 3.32886 30.848 3.34936C30.848 3.34936 30.8275 3.35961 30.7865 3.38012C30.766 3.40062 30.7455 3.41087 30.725 3.41087C30.725 3.41087 30.7148 3.42112 30.6943 3.44163H30.6635H30.602C30.52 3.48263 30.4687 3.51339 30.4482 3.53389H30.4175H30.3867V3.56465C30.3662 3.56465 30.356 3.5749 30.356 3.5954H30.3252C30.3457 3.5954 30.356 3.60565 30.356 3.62616L30.2637 3.71842H30.2945H30.2637C30.2637 3.71842 30.2022 3.73892 30.0792 3.77993C29.9972 3.82094 29.9459 3.84144 29.9254 3.84144C29.7409 3.92346 29.6281 4.00547 29.5871 4.08748C29.5666 4.08748 29.5563 4.10798 29.5563 4.14899H29.4948C29.4538 4.14899 29.4333 4.13874 29.4333 4.11824C29.4333 4.24126 29.3513 4.30277 29.1873 4.30277C29.2283 4.30277 29.2693 4.28226 29.3103 4.24126C29.2898 4.24126 29.2795 4.24126 29.2795 4.24126C29.2795 4.24126 29.2693 4.25151 29.2488 4.27201C29.2488 4.29252 29.2385 4.29252 29.218 4.27201C29.1975 4.27201 29.1873 4.28226 29.1873 4.30277H29.1565C29.1155 4.34377 29.0848 4.37453 29.0642 4.39503C29.0437 4.39503 29.013 4.41554 28.972 4.45654C28.9515 4.49755 28.931 4.52831 28.9105 4.54881C28.89 4.54881 28.8695 4.55906 28.849 4.57956C28.849 4.55906 28.8387 4.55906 28.8182 4.57956C28.7977 4.60007 28.7875 4.60007 28.7875 4.57956L28.7259 4.64107H28.6952C28.6132 4.72309 28.5312 4.77434 28.4491 4.79485L28.4799 4.8256H28.4184C28.4184 4.84611 28.4081 4.86661 28.3876 4.88711C28.3671 4.88711 28.3569 4.89736 28.3569 4.91787H28.3261V4.94862H28.3569L28.2646 5.04089C28.2441 5.06139 28.2236 5.07164 28.2031 5.07164C28.2031 5.09215 28.1929 5.1024 28.1724 5.1024C28.1929 5.1024 28.2134 5.09215 28.2339 5.07164C28.2134 5.09215 28.1929 5.1024 28.1724 5.1024V5.13315C28.1518 5.13315 28.1313 5.14341 28.1108 5.16391C28.1108 5.16391 28.1006 5.16391 28.0801 5.16391C28.0596 5.18441 28.0391 5.20492 28.0186 5.22542C27.9981 5.22542 27.9776 5.23567 27.9571 5.25617C27.8956 5.29718 27.8238 5.33819 27.7418 5.3792C27.6803 5.4202 27.629 5.46121 27.588 5.50221C27.5675 5.50221 27.5573 5.50221 27.5573 5.50221C27.5573 5.48171 27.547 5.47146 27.5265 5.47146C27.4445 5.55347 27.3625 5.63549 27.2805 5.7175C27.1984 5.77901 27.1164 5.84052 27.0344 5.90203C26.9934 5.94304 26.9627 5.97379 26.9422 5.9943C26.9216 5.9943 26.9011 6.0148 26.8806 6.0558C26.9011 6.0353 26.8909 6.0353 26.8499 6.0558C26.8294 6.07631 26.8191 6.07631 26.8191 6.0558L26.7576 6.11732C26.7371 6.11732 26.7269 6.12757 26.7269 6.14807C26.6859 6.18908 26.6346 6.23008 26.5731 6.27109C26.5116 6.29159 26.4603 6.32235 26.4193 6.36336H26.4501C26.4296 6.38386 26.4091 6.39411 26.3886 6.39411C26.3681 6.41461 26.3373 6.43512 26.2963 6.45562C26.2758 6.47612 26.2655 6.49663 26.2655 6.51713L26.204 6.54789H26.2655L26.081 6.73242C26.1015 6.73242 26.122 6.72217 26.1425 6.70166C26.1425 6.70166 26.122 6.71191 26.081 6.73242C25.999 6.77342 25.8862 6.84519 25.7427 6.9477C25.5992 7.05022 25.4967 7.12198 25.4352 7.16299C25.2916 7.245 25.1584 7.32701 25.0353 7.40903C24.9328 7.47054 24.8303 7.55255 24.7278 7.65507L24.6355 7.74733C24.656 7.74733 24.6355 7.76784 24.574 7.80884C24.5125 7.82935 24.4612 7.8191 24.4202 7.77809C24.3997 7.90111 24.3177 7.99337 24.1742 8.05488H24.1434C24.1434 8.05488 24.1332 8.05488 24.1127 8.05488V8.08564C24.1127 8.08564 24.0922 8.09589 24.0512 8.11639V8.08564C24.0512 8.08564 24.0409 8.09589 24.0204 8.11639H23.9897L23.8051 8.20866C23.8051 8.20866 23.8256 8.20866 23.8666 8.20866C23.8051 8.24967 23.7539 8.29067 23.7129 8.33168C23.6719 8.37269 23.6206 8.41369 23.5591 8.4547C23.5386 8.4752 23.5181 8.48545 23.4976 8.48545C23.4771 8.46495 23.4566 8.46495 23.4361 8.48545C23.4156 8.50596 23.4053 8.52646 23.4053 8.54697C23.4053 8.56747 23.3951 8.57772 23.3746 8.57772C23.3541 8.57772 23.3336 8.58797 23.3131 8.60847H23.2823C23.2823 8.62898 23.272 8.63923 23.2515 8.63923C23.2515 8.63923 23.2515 8.64948 23.2515 8.66999C23.231 8.66999 23.2003 8.69049 23.1593 8.7315C23.1798 8.7315 23.19 8.74175 23.19 8.76225C23.19 8.76225 23.1695 8.76225 23.1285 8.76225C23.108 8.76225 23.0978 8.7725 23.0978 8.79301C23.0978 8.79301 23.0875 8.81351 23.067 8.85452C23.026 8.89552 22.9747 8.92628 22.9132 8.94678C22.8722 8.94678 22.8312 8.96728 22.7902 9.00829C22.7902 9.00829 22.7492 9.0493 22.6672 9.13131C22.6262 9.17232 22.5954 9.21332 22.5749 9.25433H22.5442L22.4519 9.3466C22.3289 9.42861 22.2469 9.49012 22.2059 9.53113C22.2059 9.53113 22.1956 9.54138 22.1751 9.56188C22.1341 9.60289 22.0931 9.6439 22.0521 9.6849C22.0111 9.70541 21.9701 9.73616 21.9291 9.77717L21.6523 9.9617C21.5293 10.0642 21.396 10.1257 21.2525 10.1462C21.2115 10.1872 21.191 10.218 21.191 10.2385L21.1602 10.2692C21.1602 10.2692 21.1602 10.2795 21.1602 10.3C21.1192 10.3205 21.0782 10.3513 21.0372 10.3923C20.9962 10.4538 20.9347 10.5255 20.8526 10.6076C20.8526 10.6281 20.8629 10.6383 20.8834 10.6383H20.8526H20.8834C20.8629 10.6383 20.8526 10.6486 20.8526 10.6691C20.8732 10.6691 20.8732 10.6691 20.8526 10.6691C20.8526 10.6896 20.8424 10.6998 20.8219 10.6998L20.7911 10.7306C20.7911 10.7511 20.7706 10.7818 20.7296 10.8228H20.7604C20.7399 10.8638 20.7296 10.8946 20.7296 10.9151C20.7296 10.9356 20.7194 10.9664 20.6989 11.0074C20.6989 11.0074 20.6784 11.0279 20.6374 11.0689V11.0996V11.1304V11.1611H20.6066V11.1919V11.2534C20.6271 11.2534 20.6374 11.2637 20.6374 11.2842C20.6374 11.2842 20.6169 11.2842 20.5759 11.2842C20.5759 11.2842 20.5759 11.2944 20.5759 11.3149C20.5964 11.3149 20.6066 11.3252 20.6066 11.3457C20.6066 11.3867 20.5964 11.4072 20.5759 11.4072C20.6169 11.4072 20.6476 11.3969 20.6681 11.3764C20.6476 11.3969 20.6476 11.4072 20.6681 11.4072C20.7091 11.3867 20.7296 11.3867 20.7296 11.4072L20.8219 11.3457H20.8526H20.9449C20.9654 11.3252 20.9962 11.3149 21.0372 11.3149C21.0782 11.2944 21.1089 11.2842 21.1294 11.2842C21.1499 11.2842 21.1807 11.2739 21.2217 11.2534H21.2832H21.314C21.314 11.2534 21.3345 11.2432 21.3755 11.2227C21.396 11.2227 21.4165 11.2124 21.437 11.1919H21.4985C21.478 11.1714 21.4575 11.1611 21.437 11.1611L21.7138 11.0689H21.6215H21.7138C21.7343 11.0484 21.7958 11.0381 21.8983 11.0381C21.9393 11.0381 21.9701 11.0381 21.9906 11.0381C22.0316 11.0176 22.0726 11.0074 22.1136 11.0074H22.3596C22.4007 11.0074 22.4314 11.0074 22.4519 11.0074C22.4724 10.9869 22.4929 10.9766 22.5134 10.9766H23.0363H23.067C23.067 10.9356 23.0875 10.9356 23.1285 10.9766C23.19 10.9766 23.231 10.9664 23.2515 10.9459C23.2926 10.9254 23.3541 10.9151 23.4361 10.9151H23.5283C23.5283 10.9151 23.5693 10.9151 23.6514 10.9151H23.6821H23.7436C23.7641 10.9151 23.7744 10.9151 23.7744 10.9151C23.7744 10.8946 23.7846 10.8843 23.8051 10.8843C23.8461 10.8843 23.8666 10.8638 23.8666 10.8228C23.9692 10.8228 24.0512 10.8126 24.1127 10.7921C24.2152 10.7921 24.287 10.7818 24.328 10.7613H24.3587C24.3587 10.7613 24.4407 10.7408 24.6048 10.6998C24.6458 10.6588 24.6868 10.6383 24.7278 10.6383C24.7893 10.6178 24.8201 10.6178 24.8201 10.6383V10.6076C24.9226 10.6076 24.9943 10.5973 25.0353 10.5768C25.2404 10.5358 25.3839 10.505 25.4659 10.4845C25.4864 10.4845 25.4967 10.4948 25.4967 10.5153C25.5172 10.5153 25.5377 10.5153 25.5582 10.5153C25.6402 10.4743 25.7119 10.4538 25.7735 10.4538C25.8145 10.4333 25.8555 10.423 25.8965 10.423C25.9375 10.423 25.9785 10.4128 26.0195 10.3923H26.1425C26.1835 10.3923 26.2245 10.382 26.2655 10.3615H26.4808C26.5628 10.341 26.6756 10.3308 26.8191 10.3308C26.8601 10.3308 26.9114 10.341 26.9729 10.3615C27.0344 10.3615 27.0857 10.3615 27.1267 10.3615C27.1677 10.3615 27.2087 10.3718 27.2497 10.3923C27.2702 10.3923 27.26 10.3923 27.2189 10.3923C27.1984 10.3923 27.1882 10.4025 27.1882 10.423C27.1472 10.423 27.1164 10.4333 27.0959 10.4538C27.0754 10.4538 27.0447 10.4538 27.0037 10.4538C26.9832 10.4948 26.9524 10.5153 26.9114 10.5153C26.8909 10.5153 26.8601 10.5255 26.8191 10.546C26.7576 10.546 26.7064 10.5563 26.6654 10.5768C26.6243 10.5768 26.5833 10.5871 26.5423 10.6076H26.5731C26.4091 10.6486 26.286 10.6691 26.204 10.6691C26.1425 10.6896 26.081 10.7101 26.0195 10.7306C25.9785 10.7306 25.9272 10.7306 25.8657 10.7306C25.8247 10.7511 25.794 10.7613 25.7735 10.7613C25.753 10.7613 25.7222 10.7716 25.6812 10.7921C25.7017 10.7921 25.6914 10.7921 25.6504 10.7921C25.6299 10.7921 25.6299 10.7818 25.6504 10.7613L25.5582 10.7921C25.5787 10.7921 25.5992 10.8023 25.6197 10.8228H25.7119C25.7735 10.7613 25.8657 10.7511 25.9887 10.7921C26.0913 10.7716 26.204 10.7613 26.327 10.7613C26.4501 10.7408 26.5731 10.7203 26.6961 10.6998C26.7166 10.6998 26.7269 10.6998 26.7269 10.6998C26.7474 10.6793 26.7679 10.6691 26.7884 10.6691C26.8089 10.6691 26.8396 10.6691 26.8806 10.6691C26.9216 10.6486 26.9934 10.6281 27.0959 10.6076C27.1779 10.5871 27.2702 10.5665 27.3727 10.546C27.4957 10.5255 27.6188 10.5255 27.7418 10.546C27.8648 10.5665 27.9878 10.5973 28.1108 10.6383C28.2339 10.6588 28.3364 10.6896 28.4184 10.7306C28.6029 10.8331 28.6952 10.9049 28.6952 10.9459C28.7157 10.9459 28.7259 10.9561 28.7259 10.9766C28.7464 10.9766 28.767 10.9766 28.7875 10.9766L28.9412 11.1304C28.9822 11.1714 29.0232 11.2329 29.0642 11.3149C29.0642 11.3149 29.0745 11.3252 29.095 11.3457C29.177 11.3867 29.2488 11.4174 29.3103 11.4379C29.3513 11.4789 29.3923 11.52 29.4333 11.561C29.4948 11.5815 29.5461 11.6122 29.5871 11.6532C29.5666 11.6327 29.5563 11.6122 29.5563 11.5917C29.5563 11.5917 29.5461 11.5815 29.5256 11.561C29.5256 11.52 29.5153 11.4892 29.4948 11.4687C29.4538 11.4277 29.4231 11.3969 29.4026 11.3764C29.3821 11.3354 29.3513 11.2944 29.3103 11.2534V11.1919C29.2693 11.1509 29.1873 11.0894 29.0642 11.0074C28.9822 10.9254 28.9105 10.8638 28.849 10.8228C28.7259 10.7408 28.6234 10.6588 28.5414 10.5768C28.5209 10.5563 28.5107 10.5563 28.5107 10.5768C28.5107 10.5768 28.5004 10.5665 28.4799 10.546C28.4799 10.5255 28.4902 10.5255 28.5107 10.546C28.5312 10.546 28.5312 10.5358 28.5107 10.5153C28.5722 10.5153 28.6234 10.5255 28.6644 10.546C28.6644 10.5255 28.6849 10.5153 28.7259 10.5153C28.7464 10.5153 28.7567 10.5255 28.7567 10.546C28.7772 10.546 28.7977 10.546 28.8182 10.546C28.8387 10.546 28.8592 10.5563 28.8797 10.5768C28.9207 10.5768 28.9515 10.5871 28.972 10.6076C29.1565 10.6896 29.2898 10.7818 29.3718 10.8843C29.4128 10.8843 29.4333 10.8946 29.4333 10.9151C29.4538 10.9356 29.4743 10.9459 29.4948 10.9459C29.4743 10.9459 29.4743 10.9561 29.4948 10.9766C29.5153 10.9766 29.5153 10.9766 29.4948 10.9766L29.5563 11.0381V11.0689C29.6178 11.1304 29.6588 11.1816 29.6794 11.2227C29.6999 11.2227 29.7101 11.2329 29.7101 11.2534C29.7101 11.2534 29.6999 11.2534 29.6794 11.2534L29.7409 11.3149L29.7716 11.3457L29.8024 11.3764V11.3149L29.8639 11.3764C29.8844 11.3969 29.8946 11.4174 29.8946 11.4379C29.8946 11.4379 29.9049 11.4482 29.9254 11.4687V11.4072V11.4379C29.9459 11.4789 29.9767 11.561 30.0177 11.684C30.0177 11.7045 30.0177 11.725 30.0177 11.7455C30.0382 11.766 30.0484 11.7865 30.0484 11.807C30.0484 11.848 30.0484 11.8788 30.0484 11.8993C30.0689 11.8993 30.0792 11.9095 30.0792 11.93C30.0997 12.0325 30.1099 12.1248 30.1099 12.2068C30.1099 12.2888 30.1304 12.3708 30.1714 12.4529C30.1714 12.4529 30.1817 12.4734 30.2022 12.5144C30.2227 12.5144 30.2227 12.5349 30.2022 12.5759C30.2022 12.5964 30.1919 12.6169 30.1714 12.6374V12.6989C30.1919 12.7194 30.2022 12.7604 30.2022 12.8219V12.8834C30.2022 12.9449 30.2022 13.0064 30.2022 13.068C30.2227 13.1295 30.2329 13.1807 30.2329 13.2217C30.2329 13.4473 30.2124 13.6626 30.1714 13.8676C30.1304 14.0316 30.1099 14.1136 30.1099 14.1136C30.1099 14.1341 30.0997 14.1546 30.0792 14.1751C30.0792 14.1956 30.0792 14.2161 30.0792 14.2367V14.2982C30.0792 14.3392 30.0689 14.3699 30.0484 14.3904C30.0484 14.4109 30.0484 14.4417 30.0484 14.4827V14.5134V14.5442H30.0792C30.0587 14.5442 30.0484 14.5545 30.0484 14.575C30.0689 14.5955 30.0689 14.6057 30.0484 14.6057C30.0484 14.6057 30.0587 14.616 30.0792 14.6365C30.0792 14.6775 30.0689 14.7082 30.0484 14.7287C30.0484 14.7287 30.0484 14.739 30.0484 14.7595V14.821C30.0484 14.862 30.0382 14.8928 30.0177 14.9133C30.0177 15.0158 29.9972 15.1491 29.9561 15.3131C29.9766 15.3131 29.9766 15.3131 29.9561 15.3131C29.9561 15.2926 29.9664 15.2823 29.9869 15.2823C29.9459 15.4463 29.9254 15.5694 29.9254 15.6514C29.9049 15.6924 29.8946 15.7231 29.8946 15.7436C29.8946 15.7642 29.8844 15.7949 29.8639 15.8359C29.8639 15.8769 29.8536 15.9077 29.8331 15.9282C29.8331 15.9692 29.8229 15.9999 29.8024 16.0204C29.8024 16.0615 29.7921 16.1025 29.7716 16.1435C29.7511 16.164 29.7306 16.1947 29.7101 16.2357V16.205V16.328C29.6896 16.3485 29.6794 16.369 29.6794 16.3895V16.4203C29.6588 16.4613 29.6486 16.4818 29.6486 16.4818C29.6486 16.4818 29.6383 16.5023 29.6178 16.5433C29.6178 16.5638 29.6076 16.574 29.5871 16.574C29.5871 16.574 29.5871 16.5843 29.5871 16.6048V16.6663C29.5871 16.6868 29.5768 16.7176 29.5563 16.7586C29.5563 16.7791 29.5563 16.8098 29.5563 16.8508C29.5563 16.9328 29.5358 17.0354 29.4948 17.1584C29.4948 17.1994 29.4846 17.2301 29.4641 17.2506C29.4436 17.2712 29.4333 17.3019 29.4333 17.3429V17.4352C29.4538 17.3942 29.4641 17.3634 29.4641 17.3429C29.4641 17.3224 29.4743 17.3019 29.4948 17.2814C29.4948 17.2609 29.4948 17.2506 29.4948 17.2506C29.5153 17.2506 29.5256 17.2404 29.5256 17.2199C29.5256 17.1584 29.5358 17.1174 29.5563 17.0969C29.5563 17.0149 29.5666 16.9636 29.5871 16.9431C29.6281 16.8201 29.6486 16.7278 29.6486 16.6663C29.6691 16.6253 29.6794 16.5945 29.6794 16.574C29.6794 16.5535 29.6896 16.5228 29.7101 16.4818L29.8024 16.2972C29.8229 16.2767 29.8229 16.2665 29.8024 16.2665C29.8024 16.2665 29.8126 16.2562 29.8331 16.2357C29.8536 16.2152 29.8536 16.2152 29.8331 16.2357C29.8331 16.2562 29.8434 16.2665 29.8639 16.2665C29.8639 16.3075 29.8639 16.328 29.8639 16.328C29.8844 16.328 29.8844 16.3485 29.8639 16.3895C29.8844 16.41 29.8946 16.4305 29.8946 16.451C29.8946 16.4715 29.9049 16.5023 29.9254 16.5433C29.9049 16.5843 29.8946 16.615 29.8946 16.6355C29.9151 16.6355 29.9254 16.656 29.9254 16.6971C29.9254 16.7381 29.9151 16.7791 29.8946 16.8201C29.8946 16.8611 29.8946 16.9021 29.8946 16.9431C29.8946 16.9636 29.8741 17.0354 29.8331 17.1584C29.8331 17.1584 29.8331 17.1994 29.8331 17.2814C29.8331 17.2609 29.8229 17.2609 29.8024 17.2814C29.8024 17.3019 29.8024 17.3019 29.8024 17.2814V17.3429C29.7819 17.3429 29.7716 17.3532 29.7716 17.3737C29.7511 17.3942 29.7409 17.4249 29.7409 17.4659C29.7409 17.4864 29.7306 17.5172 29.7101 17.5582C29.7101 17.5582 29.6999 17.5684 29.6794 17.589V17.6812V17.712C29.6794 17.712 29.6896 17.7017 29.7101 17.6812V17.8657C29.7101 17.8452 29.7204 17.835 29.7409 17.835C29.7204 17.835 29.7101 17.8452 29.7101 17.8657C29.6896 17.8863 29.6691 17.917 29.6486 17.958C29.6486 17.9785 29.6281 18.0093 29.5871 18.0503C29.5461 18.1528 29.5153 18.2143 29.4948 18.2348C29.4538 18.3168 29.4128 18.3886 29.3718 18.4501C29.3308 18.5116 29.3 18.5834 29.2795 18.6654V18.7576L29.2488 18.7884C29.2078 18.8294 29.177 18.8397 29.1565 18.8192C29.1975 18.9012 29.1873 18.9627 29.1258 19.0037C29.0848 19.0447 29.0437 19.0857 29.0027 19.1267C29.0232 19.0857 29.054 19.0447 29.095 19.0037H29.0642H29.0335C29.0335 19.0037 29.0335 19.0242 29.0335 19.0652C29.0335 19.0652 29.0232 19.0754 29.0027 19.096C29.0027 19.0754 28.9925 19.0652 28.972 19.0652L28.9412 19.096L28.972 19.1267H28.9412C28.9412 19.1062 28.931 19.1062 28.9105 19.1267H28.8797L28.9105 19.1575H28.8797C28.8797 19.178 28.8695 19.1985 28.849 19.219V19.2497C28.8285 19.2907 28.808 19.3317 28.7875 19.3727C28.767 19.3932 28.7464 19.424 28.7259 19.465H28.7567C28.7157 19.506 28.6849 19.547 28.6644 19.588C28.6644 19.6085 28.6542 19.6393 28.6337 19.6803C28.6132 19.7008 28.6029 19.7213 28.6029 19.7418C28.6029 19.7623 28.5927 19.7828 28.5722 19.8033L28.4799 19.9878C28.5209 19.9673 28.5312 19.9673 28.5107 19.9878C28.5107 20.0084 28.4902 20.0391 28.4491 20.0801C28.4286 20.1006 28.4184 20.1109 28.4184 20.1109C28.4389 20.1109 28.4389 20.1211 28.4184 20.1416V20.2646C28.3774 20.3467 28.3261 20.4287 28.2646 20.5107C28.2031 20.5722 28.1519 20.644 28.1108 20.726C28.1108 20.7465 28.1006 20.7567 28.0801 20.7567C28.0801 20.7772 28.0698 20.808 28.0493 20.849L27.9571 21.0335C27.9571 21.054 27.9468 21.0745 27.9263 21.095C27.9263 21.095 27.9263 21.1053 27.9263 21.1258C27.9058 21.1463 27.8956 21.177 27.8956 21.218L27.834 21.2796V21.3103C27.752 21.3923 27.7008 21.4641 27.6803 21.5256V21.4948C27.5778 21.6589 27.4752 21.8126 27.3727 21.9562C27.3317 21.9972 27.3112 22.0177 27.3112 22.0177C27.2292 22.1407 27.1677 22.2227 27.1267 22.2637C27.0447 22.3867 26.9832 22.4688 26.9422 22.5098C26.9011 22.5508 26.8806 22.5815 26.8806 22.602V22.6635C26.8601 22.6635 26.8499 22.6738 26.8499 22.6943C26.8499 22.6943 26.8396 22.6943 26.8191 22.6943V22.725C26.8191 22.725 26.8089 22.7353 26.7884 22.7558H26.7576C26.7576 22.7558 26.7576 22.7661 26.7576 22.7866H26.7269C26.7064 22.8276 26.6756 22.8583 26.6346 22.8788C26.6141 22.8788 26.5936 22.8993 26.5731 22.9403C26.5936 22.9608 26.6038 22.9608 26.6038 22.9403C26.5628 22.9813 26.5218 23.0326 26.4808 23.0941C26.4603 23.1556 26.4296 23.2069 26.3886 23.2479C26.3681 23.2684 26.3476 23.2786 26.327 23.2786C26.3065 23.2786 26.286 23.2889 26.2655 23.3094C26.245 23.3299 26.2348 23.3504 26.2348 23.3709V23.4017L26.1733 23.4632H26.1425C26.1425 23.5042 26.1323 23.5247 26.1118 23.5247C26.1118 23.5452 26.0913 23.5759 26.0503 23.6169C26.0708 23.6169 26.081 23.6272 26.081 23.6477C26.081 23.6477 26.0605 23.6477 26.0195 23.6477C25.999 23.6682 25.9887 23.6785 25.9887 23.6785C26.0092 23.6785 26.0092 23.6887 25.9887 23.7092V23.7707C25.9477 23.8117 25.9067 23.8527 25.8657 23.8937C25.8247 23.9142 25.7837 23.945 25.7427 23.986V24.0168C25.7222 24.0168 25.6914 24.068 25.6504 24.1705C25.6299 24.2115 25.5992 24.2525 25.5582 24.2936C25.5377 24.3141 25.5172 24.3346 25.4967 24.3551C25.4762 24.3551 25.4557 24.3756 25.4352 24.4166V24.3858C25.3531 24.5088 25.2916 24.5909 25.2506 24.6319C25.2506 24.6524 25.2301 24.6626 25.1891 24.6626C25.1686 24.7036 25.1379 24.7549 25.0968 24.8164C25.0763 24.8574 25.0456 24.8984 25.0046 24.9394C24.9636 24.9804 24.9226 25.0214 24.8816 25.0624C24.8611 25.1034 24.8303 25.1444 24.7893 25.1855C24.6458 25.329 24.533 25.4315 24.451 25.493C24.4305 25.493 24.4202 25.5033 24.4202 25.5238C24.4202 25.5238 24.41 25.5238 24.3895 25.5238C24.3485 25.5238 24.3382 25.5135 24.3587 25.493C24.3792 25.4725 24.3792 25.4622 24.3587 25.4622C24.3792 25.4417 24.3895 25.4315 24.3895 25.4315C24.3895 25.411 24.41 25.3802 24.451 25.3392C24.4305 25.3187 24.4407 25.2675 24.4817 25.1855C24.5022 25.1855 24.533 25.1342 24.574 25.0317C24.615 24.9907 24.6355 24.9497 24.6355 24.9087C24.5945 24.9497 24.574 24.9804 24.574 25.0009C24.533 25.0009 24.5125 25.0112 24.5125 25.0317C24.4305 25.1547 24.369 25.2367 24.328 25.2777C24.287 25.3187 24.246 25.3597 24.205 25.4007C24.1844 25.4212 24.1537 25.452 24.1127 25.493C24.0512 25.5545 23.9384 25.6468 23.7744 25.7698C23.7744 25.7698 23.7539 25.78 23.7129 25.8006C23.6924 25.8006 23.6924 25.7903 23.7129 25.7698C23.7334 25.7493 23.7334 25.739 23.7129 25.739C23.7129 25.739 23.7334 25.698 23.7744 25.616C23.7744 25.5955 23.7744 25.575 23.7744 25.5545C23.7949 25.534 23.8051 25.5135 23.8051 25.493C23.8461 25.452 23.8666 25.4212 23.8666 25.4007C23.8666 25.3802 23.8769 25.3597 23.8974 25.3392C23.8974 25.3187 23.9077 25.3085 23.9282 25.3085C23.8871 25.329 23.8564 25.3495 23.8359 25.37C23.8359 25.37 23.8154 25.3802 23.7744 25.4007H23.8051C23.8256 25.4007 23.8051 25.4315 23.7436 25.493C23.7231 25.5135 23.7129 25.534 23.7129 25.5545C23.6719 25.5955 23.6514 25.616 23.6514 25.616C23.6514 25.5955 23.6411 25.6058 23.6206 25.6468H23.5898C23.5693 25.6673 23.5591 25.698 23.5591 25.739C23.5181 25.7595 23.4771 25.8108 23.4361 25.8928C23.4566 25.8723 23.4566 25.8723 23.4361 25.8928C23.4361 25.9133 23.4156 25.9338 23.3746 25.9543C23.3541 25.9543 23.3438 25.9646 23.3438 25.9851C23.3233 26.0056 23.3131 26.0261 23.3131 26.0466C23.3131 26.0466 23.3028 26.0568 23.2823 26.0773C23.2618 26.1184 23.2105 26.1799 23.1285 26.2619C23.0875 26.3029 23.0465 26.3336 23.0055 26.3541C22.985 26.3541 22.9542 26.3746 22.9132 26.4157V26.4464C22.8927 26.4464 22.862 26.4772 22.821 26.5387C22.8005 26.5797 22.7697 26.6207 22.7287 26.6617C22.7287 26.6822 22.7185 26.6924 22.698 26.6924C22.698 26.6924 22.698 26.7027 22.698 26.7232C22.6569 26.7642 22.6364 26.7847 22.6364 26.7847L22.5749 26.8462C22.5339 26.8872 22.5032 26.918 22.4827 26.9385C22.4622 26.9385 22.4314 26.959 22.3904 27C22.3699 27.041 22.3186 27.1025 22.2366 27.1845C22.1956 27.2255 22.1649 27.246 22.1444 27.246C22.1239 27.2665 22.0931 27.2973 22.0521 27.3383C22.0111 27.3383 21.9906 27.3588 21.9906 27.3998C21.9496 27.4203 21.8881 27.4716 21.8061 27.5536C21.765 27.5946 21.724 27.6254 21.683 27.6459C21.6625 27.6664 21.6318 27.6971 21.5908 27.7381L21.4985 27.8304C21.4575 27.8714 21.4267 27.8919 21.4062 27.8919C21.3242 27.9739 21.2627 28.0252 21.2217 28.0457C21.1397 28.1072 21.0372 28.1789 20.9142 28.261C20.8321 28.302 20.7809 28.3327 20.7604 28.3532C20.7194 28.3737 20.6886 28.384 20.6681 28.384C20.6476 28.384 20.6271 28.3942 20.6066 28.4147C20.6066 28.4147 20.5964 28.425 20.5759 28.4455H20.5451L20.4836 28.507C20.4631 28.5275 20.4426 28.548 20.4221 28.5685C20.4221 28.589 20.4118 28.6095 20.3913 28.63C20.3503 28.671 20.3298 28.7018 20.3298 28.7223C20.3093 28.7223 20.2888 28.7325 20.2683 28.753L20.2068 28.8145C20.1863 28.8145 20.176 28.8248 20.176 28.8453C20.094 28.8863 20.0325 28.9273 19.9915 28.9683L19.8992 29.0606L19.8377 29.1221C19.7967 29.1426 19.7557 29.1939 19.7147 29.2759C19.6532 29.3374 19.5917 29.3886 19.5302 29.4296C19.4687 29.4912 19.3969 29.5527 19.3149 29.6142L19.2226 29.7064C19.2226 29.6859 19.2124 29.6859 19.1919 29.7064L19.1304 29.7372H19.0996C19.0996 29.7372 19.0791 29.7577 19.0381 29.7987L18.9766 29.8602C18.9561 29.8807 18.9356 29.891 18.9151 29.891C18.8946 29.9115 18.8741 29.932 18.8536 29.9525C18.8331 29.9525 18.8228 29.9525 18.8228 29.9525C18.8228 29.973 18.8126 29.9832 18.7921 29.9832L18.7613 30.014C18.7613 30.014 18.7818 30.014 18.8228 30.014C18.7818 30.0345 18.7511 30.055 18.7306 30.0755C18.7306 30.096 18.7203 30.1165 18.6998 30.137H18.7306H18.6998C18.6383 30.178 18.5563 30.219 18.4538 30.26C18.3512 30.301 18.2795 30.342 18.2385 30.3831C18.136 30.4241 18.0437 30.4651 17.9617 30.5061C17.9002 30.5471 17.8387 30.6086 17.7771 30.6906C17.7771 30.6906 17.7566 30.7111 17.7156 30.7521C17.6951 30.7726 17.6746 30.7829 17.6541 30.7829C17.5926 30.7829 17.5619 30.7726 17.5619 30.7521C17.5414 30.8546 17.4286 30.9264 17.2236 30.9674C17.3056 30.9264 17.3568 30.8956 17.3773 30.8751H17.3466L17.3158 30.9059C17.2953 30.9264 17.2851 30.9264 17.2851 30.9059C17.2851 30.9059 17.2748 30.9161 17.2543 30.9366V30.9059H17.2236C17.203 30.9059 17.1928 30.9161 17.1928 30.9366C17.1928 30.9366 17.1825 30.9366 17.162 30.9366C17.1825 30.9161 17.1825 30.9059 17.162 30.9059C17.1415 30.9264 17.1313 30.9264 17.1313 30.9059H17.1005L17.1313 30.9366C17.1108 30.9366 17.0903 30.9366 17.0698 30.9366C17.0698 30.9572 17.0595 30.9674 17.039 30.9674C17.0185 30.9674 17.0083 30.9777 17.0083 30.9982C17.0083 31.0187 16.998 31.0289 16.9775 31.0289L16.9468 30.9982V31.0289H16.916C16.9365 31.0084 16.9365 30.9982 16.916 30.9982C16.916 30.9982 16.9263 30.9879 16.9468 30.9674C16.9263 30.9879 16.9058 30.9982 16.8852 30.9982C16.8852 30.9982 16.875 31.0084 16.8545 31.0289C16.834 31.0289 16.8237 31.0187 16.8237 30.9982C16.8442 30.9982 16.8442 30.9982 16.8237 30.9982V31.0289C16.8237 31.0289 16.8032 31.0392 16.7622 31.0597C16.7212 31.1007 16.7007 31.1109 16.7007 31.0904C16.7007 31.0904 16.711 31.0904 16.7315 31.0904L16.7622 31.0597C16.7622 31.0597 16.752 31.0699 16.7315 31.0904C16.711 31.0904 16.6905 31.1007 16.67 31.1212H16.6392V31.0904L16.5469 31.1827C16.5264 31.1827 16.5162 31.1827 16.5162 31.1827C16.5162 31.2032 16.5059 31.2134 16.4854 31.2134C16.5059 31.2339 16.4854 31.2544 16.4239 31.275C16.3829 31.2955 16.3419 31.2955 16.3009 31.275C16.3009 31.275 16.2906 31.2852 16.2701 31.3057C16.2496 31.3672 16.2086 31.4082 16.1471 31.4287C16.0856 31.4697 16.0241 31.5107 15.9626 31.5517C15.9421 31.5517 15.9318 31.562 15.9318 31.5825C15.9113 31.5825 15.8908 31.5928 15.8703 31.6133H15.8396C15.7986 31.6543 15.7678 31.6748 15.7473 31.6748C15.7268 31.6748 15.6961 31.685 15.655 31.7055H15.6858C15.6243 31.767 15.5525 31.808 15.4705 31.8285C15.3885 31.8696 15.3372 31.9003 15.3167 31.9208C15.2757 31.9413 15.245 31.9516 15.2245 31.9516C15.1835 31.9721 15.1527 31.9926 15.1322 32.0131C15.0912 32.0336 15.0502 32.0541 15.0092 32.0746C14.9682 32.1156 14.9067 32.1566 14.8247 32.1976C14.7426 32.2386 14.7016 32.2591 14.7016 32.2591C14.6811 32.2591 14.6709 32.2591 14.6709 32.2591C14.6504 32.2796 14.6299 32.2899 14.6094 32.2899C14.5479 32.3104 14.4761 32.3411 14.3941 32.3821C14.3531 32.4026 14.3018 32.4129 14.2403 32.4129C14.1788 32.4334 14.1275 32.4641 14.0865 32.5052C14.025 32.5052 13.9738 32.5154 13.9328 32.5359C13.8918 32.5359 13.8713 32.5359 13.8713 32.5359C13.8507 32.5564 13.82 32.5667 13.779 32.5667C13.7585 32.5667 13.7482 32.5667 13.7482 32.5667C13.7482 32.5872 13.7277 32.5872 13.6867 32.5667C13.6457 32.5667 13.6457 32.5564 13.6867 32.5359C13.7072 32.5359 13.7072 32.5359 13.6867 32.5359C13.7277 32.5154 13.7585 32.4949 13.779 32.4744C13.7995 32.4744 13.8302 32.4641 13.8713 32.4436C13.8713 32.4231 13.8918 32.3924 13.9328 32.3514C13.8507 32.3924 13.7892 32.4129 13.7482 32.4129L13.779 32.4436C13.574 32.4847 13.4509 32.5052 13.4099 32.5052H13.2562H13.2254C13.1229 32.5667 13.0204 32.6179 12.9178 32.6589C12.7538 32.7409 12.5898 32.8127 12.4258 32.8742C12.2412 32.9562 12.067 33.028 11.9029 33.0895V33.1203C11.8209 33.1203 11.7697 33.1305 11.7492 33.151C11.7286 33.1715 11.6671 33.192 11.5646 33.2125C11.5031 33.2125 11.5134 33.1818 11.5954 33.1203C11.6569 33.0792 11.6671 33.0485 11.6261 33.028C11.7286 32.9665 11.8107 32.905 11.8722 32.8435C11.9132 32.8025 11.9849 32.7512 12.0875 32.6897C12.0054 32.7307 11.9542 32.7614 11.9337 32.782C11.8722 32.782 11.8414 32.7717 11.8414 32.7512C11.7799 32.8127 11.7184 32.864 11.6569 32.905C11.5749 32.9665 11.4929 33.0177 11.4108 33.0587C11.3493 33.0998 11.2776 33.1305 11.1956 33.151C11.1135 33.1715 11.0418 33.2023 10.9803 33.2433C10.7547 33.3048 10.5292 33.3355 10.3037 33.3355H10.3344C10.2934 33.315 10.2729 33.315 10.2729 33.3355C10.2524 33.356 10.2217 33.3458 10.1806 33.3048C10.1601 33.2843 10.1704 33.2638 10.2114 33.2433C10.2319 33.2433 10.2217 33.2228 10.1806 33.1818C10.2011 33.1818 10.2217 33.1715 10.2422 33.151C10.1806 33.1715 10.1089 33.2023 10.0269 33.2433C9.90385 33.2843 9.78083 33.3253 9.65781 33.3663C9.51429 33.4073 9.39126 33.4483 9.28875 33.4893C8.91969 33.5918 8.56088 33.6431 8.21232 33.6431C8.17131 33.6226 8.14056 33.6226 8.12006 33.6431C8.09955 33.6636 8.0688 33.6533 8.02779 33.6123C7.98678 33.6123 7.99704 33.6021 8.05855 33.5816C8.09955 33.5611 8.09955 33.5303 8.05855 33.4893C8.12006 33.4483 8.17131 33.4176 8.21232 33.3971C8.23282 33.3765 8.28408 33.356 8.3661 33.3355C8.3661 33.274 8.39685 33.2125 8.45836 33.151C8.51987 33.11 8.57113 33.069 8.61214 33.028C8.71465 33.0075 8.79667 32.9665 8.85818 32.905C8.89918 32.864 8.95044 32.823 9.01195 32.782H8.9812C9.08371 32.7409 9.17598 32.6897 9.25799 32.6282C9.34001 32.5872 9.42202 32.5462 9.50403 32.5052C9.60655 32.4641 9.69882 32.4231 9.78083 32.3821C9.86284 32.3616 9.95511 32.3309 10.0576 32.2899C10.0986 32.2489 10.1601 32.2079 10.2422 32.1668C10.2627 32.1463 10.2729 32.1258 10.2729 32.1053C10.2729 32.0848 10.2934 32.0643 10.3344 32.0438C10.3139 31.9823 10.3139 31.9311 10.3344 31.8901C10.3549 31.849 10.3754 31.808 10.3959 31.767C10.4574 31.7465 10.5087 31.685 10.5497 31.5825V31.5517C10.5087 31.5723 10.4882 31.5825 10.4882 31.5825C10.4677 31.603 10.4369 31.6235 10.3959 31.644C10.3549 31.644 10.3242 31.644 10.3037 31.644C10.2832 31.6645 10.2524 31.6748 10.2114 31.6748C10.1704 31.6953 10.1191 31.7055 10.0576 31.7055H9.99611C9.97561 31.7055 9.97561 31.6953 9.99611 31.6748L10.0884 31.5825C10.0884 31.562 10.1089 31.5312 10.1499 31.4902C10.1909 31.4697 10.2319 31.439 10.2729 31.398C10.3139 31.3775 10.3447 31.357 10.3652 31.3365C10.3652 31.316 10.3857 31.2955 10.4267 31.275C10.5087 31.2339 10.5702 31.2134 10.6112 31.2134C10.6112 31.1724 10.6215 31.1519 10.642 31.1519C10.6625 31.1519 10.6727 31.1417 10.6727 31.1212C10.6727 31.1417 10.683 31.1417 10.7035 31.1212C10.7035 31.1212 10.7035 31.1314 10.7035 31.1519L10.7342 31.1212H10.765C10.806 31.1007 10.8368 31.0802 10.8573 31.0597C10.8573 31.0597 10.8778 31.0494 10.9188 31.0289H10.9495L11.011 30.9674L10.9803 30.9366L11.0725 30.8444H11.0418H11.0725C11.093 30.8239 11.1135 30.8136 11.1341 30.8136C11.1546 30.8136 11.1853 30.8034 11.2263 30.7829C11.3083 30.7419 11.3596 30.7111 11.3801 30.6906C11.4006 30.6906 11.4108 30.6804 11.4108 30.6599C11.4108 30.6599 11.4211 30.6599 11.4416 30.6599C11.4416 30.6393 11.4314 30.6393 11.4108 30.6599C11.3903 30.6804 11.3698 30.6906 11.3493 30.6906C11.3493 30.6906 11.3493 30.7009 11.3493 30.7214C11.3083 30.7419 11.2981 30.7316 11.3186 30.6906C11.3186 30.6496 11.2981 30.6393 11.2571 30.6599V30.6291C11.2571 30.6291 11.2673 30.6086 11.2878 30.5676H11.2571H11.2878C11.2878 30.5471 11.2981 30.5368 11.3186 30.5368C11.3186 30.5368 11.3186 30.5471 11.3186 30.5676C11.3186 30.5471 11.3288 30.5368 11.3493 30.5368C11.3493 30.5368 11.3493 30.5266 11.3493 30.5061H11.3801L11.3493 30.5368C11.3698 30.5368 11.3801 30.5266 11.3801 30.5061H11.4108C11.4314 30.4856 11.4621 30.4753 11.5031 30.4753C11.5031 30.4548 11.5236 30.4446 11.5646 30.4446C11.5031 30.4446 11.4621 30.4548 11.4416 30.4753C11.4416 30.4548 11.4519 30.4446 11.4724 30.4446L11.5031 30.4138V30.3831L11.5646 30.3215C11.5851 30.301 11.5954 30.2805 11.5954 30.26H11.6261V30.2293C11.6261 30.2498 11.6364 30.2498 11.6569 30.2293H11.6876C11.6876 30.2293 11.7081 30.2088 11.7492 30.1678V30.1985C11.7697 30.178 11.7799 30.1678 11.7799 30.1678C11.8004 30.1678 11.8107 30.1575 11.8107 30.137C11.8107 30.137 11.8209 30.137 11.8414 30.137C11.8824 30.1165 11.9337 30.096 11.9952 30.0755C12.0362 30.055 12.0772 30.0345 12.1182 30.014C12.1182 30.014 12.0977 30.014 12.0567 30.014C12.0977 29.973 12.1387 29.9422 12.1797 29.9217C12.2207 29.9012 12.2617 29.8807 12.3027 29.8602C12.3643 29.7987 12.4463 29.7475 12.5488 29.7064C12.5898 29.6859 12.6205 29.6757 12.641 29.6757C12.641 29.6757 12.6616 29.6654 12.7026 29.6449C12.7231 29.6449 12.7538 29.6244 12.7948 29.5834C12.8153 29.5424 12.8256 29.5322 12.8256 29.5527C12.8871 29.5322 12.9178 29.5117 12.9178 29.4912C12.9383 29.5117 12.9589 29.5117 12.9794 29.4912C12.9794 29.4912 12.9999 29.4809 13.0409 29.4604C13.0614 29.4399 13.1126 29.4091 13.1946 29.3681C13.1536 29.3681 13.1434 29.3579 13.1639 29.3374C13.1844 29.3169 13.2151 29.3169 13.2562 29.3374C13.2972 29.2964 13.3177 29.2759 13.3177 29.2759L13.3792 29.2144C13.4612 29.1734 13.6047 29.1118 13.8097 29.0298C13.8507 29.0298 13.9328 28.9786 14.0558 28.8761C14.1583 28.794 14.2198 28.753 14.2403 28.753C14.3223 28.712 14.3941 28.6813 14.4556 28.6608H14.4248C14.4864 28.6198 14.5581 28.5788 14.6401 28.5378C14.7016 28.5172 14.7631 28.4865 14.8247 28.4455H14.9169C15.0604 28.343 15.204 28.261 15.3475 28.1994C15.409 28.1584 15.4705 28.1174 15.532 28.0764C15.614 28.0559 15.6858 28.0252 15.7473 27.9842C15.8293 27.9432 15.9011 27.9124 15.9626 27.8919C16.0446 27.8509 16.1164 27.7894 16.1779 27.7074C16.2599 27.6459 16.3522 27.5946 16.4547 27.5536C16.4957 27.5126 16.5264 27.4921 16.5469 27.4921C16.5674 27.4921 16.5982 27.4818 16.6392 27.4613H16.67C16.6905 27.4408 16.711 27.4101 16.7315 27.3691C16.752 27.3486 16.7725 27.3383 16.793 27.3383C16.834 27.3178 16.8442 27.3076 16.8237 27.3076C16.8237 27.3076 16.8442 27.2973 16.8852 27.2768C16.9058 27.2768 16.9263 27.2665 16.9468 27.246L17.0083 27.1845C16.8442 27.2665 16.711 27.3178 16.6085 27.3383V27.3691C16.6085 27.3691 16.5879 27.3691 16.5469 27.3691C16.5264 27.3691 16.5264 27.3588 16.5469 27.3383C16.5674 27.3383 16.5674 27.3281 16.5469 27.3076L16.6392 27.2153C16.6392 27.1948 16.67 27.1538 16.7315 27.0923C16.7725 27.0718 16.793 27.0513 16.793 27.0308C16.8135 27.0103 16.834 26.9897 16.8545 26.9692C16.916 26.9077 16.9775 26.8565 17.039 26.8155C17.121 26.754 17.1928 26.7027 17.2543 26.6617C17.2748 26.6412 17.2953 26.6309 17.3158 26.6309C17.3363 26.6104 17.3568 26.5899 17.3773 26.5694C17.3773 26.5694 17.3876 26.5694 17.4081 26.5694L17.4388 26.5387H17.4696C17.5106 26.5182 17.5414 26.4977 17.5619 26.4772C17.5824 26.4567 17.6131 26.4362 17.6541 26.4157C17.6541 26.4157 17.6644 26.4157 17.6849 26.4157L17.7771 26.3234C17.7771 26.3234 17.7669 26.3131 17.7464 26.2926C17.7669 26.2721 17.7874 26.2619 17.8079 26.2619C17.8284 26.2414 17.8489 26.2106 17.8694 26.1696C17.8489 26.1901 17.8284 26.2004 17.8079 26.2004C17.8284 26.2004 17.8387 26.2004 17.8387 26.2004C17.8387 26.1799 17.8489 26.1696 17.8694 26.1696C17.9104 26.1491 17.9822 26.1184 18.0847 26.0773C18.1872 26.0363 18.259 26.0056 18.3 25.9851C18.382 25.9441 18.464 25.9031 18.546 25.8621C18.628 25.8211 18.6895 25.7698 18.7306 25.7083C18.7511 25.6878 18.7613 25.6673 18.7613 25.6468C18.7613 25.6263 18.7818 25.616 18.8228 25.616C18.8638 25.5955 18.9048 25.6058 18.9458 25.6468C18.9458 25.5443 19.0278 25.4725 19.1919 25.4315L19.2841 25.247C19.2636 25.247 19.2329 25.2572 19.1919 25.2777C19.2124 25.2572 19.2431 25.247 19.2841 25.247C19.3046 25.2265 19.3251 25.2162 19.3457 25.2162C19.3662 25.2162 19.3969 25.206 19.4379 25.1855C19.4584 25.1649 19.4687 25.1444 19.4687 25.1239C19.4892 25.1034 19.5097 25.0829 19.5302 25.0624L19.7147 24.8779C19.7557 24.8369 19.7865 24.8164 19.807 24.8164C19.8275 24.8164 19.848 24.8061 19.8685 24.7856L19.93 24.7241C19.9505 24.7036 19.9608 24.6831 19.9608 24.6626C20.0223 24.6421 20.053 24.6216 20.053 24.6011H20.0838C20.1248 24.5601 20.1453 24.5396 20.1453 24.5396C20.1658 24.4781 20.2068 24.4371 20.2683 24.4166C20.1863 24.4166 20.2068 24.3961 20.3298 24.3551C20.3298 24.3551 20.3401 24.3448 20.3606 24.3243C20.3606 24.3038 20.3606 24.2936 20.3606 24.2936C20.3811 24.2731 20.3913 24.2525 20.3913 24.232C20.4323 24.191 20.4836 24.15 20.5451 24.109C20.6271 24.068 20.6989 24.027 20.7604 23.986C20.7809 23.986 20.7911 23.9758 20.7911 23.9552L20.9449 23.8015C21.0064 23.74 21.0372 23.699 21.0372 23.6785L20.9449 23.7707C20.8219 23.8117 20.7501 23.8322 20.7296 23.8322C20.6476 23.8732 20.5759 23.8937 20.5143 23.8937L20.5451 23.9245C20.5041 23.904 20.4836 23.904 20.4836 23.9245C20.5041 23.9245 20.4938 23.9245 20.4528 23.9245C20.4323 23.9245 20.4323 23.9245 20.4528 23.9245C20.4733 23.904 20.4733 23.8835 20.4528 23.863C20.4938 23.8425 20.5143 23.8322 20.5143 23.8322C20.5143 23.8117 20.5348 23.7912 20.5759 23.7707C20.5759 23.7707 20.5964 23.7297 20.6374 23.6477C20.6784 23.6477 20.6989 23.6374 20.6989 23.6169C20.7194 23.5964 20.7501 23.5759 20.7911 23.5554H20.7604C20.8424 23.4734 20.9039 23.4222 20.9449 23.4017C20.9859 23.3607 21.0474 23.3196 21.1294 23.2786C21.1499 23.2376 21.1705 23.2171 21.191 23.2171C21.2115 23.2171 21.2217 23.2069 21.2217 23.1864C21.2217 23.2069 21.232 23.2069 21.2525 23.1864L21.314 23.1556C21.355 23.1351 21.3857 23.1146 21.4062 23.0941C21.4267 23.0736 21.4575 23.0531 21.4985 23.0326H21.5293C21.5293 23.0121 21.5395 23.0018 21.56 23.0018C21.5805 22.9813 21.5908 22.9608 21.5908 22.9403H21.6215H21.56L21.683 22.8173H21.6523H21.683C21.724 22.7763 21.7856 22.7353 21.8676 22.6943C21.8676 22.6943 21.8881 22.684 21.9291 22.6635C21.9701 22.6225 22.0111 22.602 22.0521 22.602C22.0931 22.5815 22.1341 22.5508 22.1751 22.5098C22.2366 22.4483 22.2674 22.4072 22.2674 22.3867H22.2981C22.2981 22.3867 22.3084 22.3867 22.3289 22.3867C22.3289 22.3662 22.3391 22.356 22.3596 22.356C22.3596 22.356 22.3699 22.3457 22.3904 22.3252C22.3904 22.3252 22.4007 22.315 22.4212 22.2945C22.4212 22.274 22.4212 22.2637 22.4212 22.2637C22.4417 22.2637 22.4519 22.2535 22.4519 22.233C22.4519 22.1715 22.5032 22.1612 22.6057 22.2022C22.5852 22.1407 22.6057 22.0997 22.6672 22.0792C22.7287 22.0382 22.7902 22.0074 22.8517 21.9869C22.8107 22.0074 22.7697 22.0382 22.7287 22.0792H22.7595C22.7595 22.0792 22.7697 22.0587 22.7902 22.0177C22.7902 22.0177 22.8005 22.0177 22.821 22.0177H22.8517H22.8825V21.9869H22.9132C22.9747 21.9459 23.067 21.8639 23.19 21.7409C23.2105 21.6999 23.231 21.6794 23.2515 21.6794C23.272 21.6794 23.3028 21.6589 23.3438 21.6179C23.3438 21.5974 23.3541 21.5769 23.3746 21.5564C23.4156 21.5153 23.4361 21.4948 23.4361 21.4948C23.4566 21.4538 23.4668 21.4436 23.4668 21.4641C23.4668 21.4641 23.4771 21.4436 23.4976 21.4026C23.5181 21.4026 23.5386 21.3923 23.5591 21.3718C23.5591 21.3513 23.5591 21.3411 23.5591 21.3411C23.5796 21.3411 23.5898 21.3308 23.5898 21.3103C23.6104 21.2693 23.6309 21.2488 23.6514 21.2488C23.6719 21.2283 23.6924 21.1975 23.7129 21.1565C23.6309 21.1565 23.6514 21.136 23.7744 21.095C23.7744 21.054 23.7846 21.0335 23.8051 21.0335C23.8051 20.9925 23.8154 20.9618 23.8359 20.9413C23.8769 20.8797 23.9282 20.8182 23.9897 20.7567C24.0512 20.6952 24.1127 20.6235 24.1742 20.5414H24.205C24.2255 20.5209 24.2665 20.4389 24.328 20.2954C24.41 20.1519 24.4612 20.0801 24.4817 20.0801C24.5228 20.0186 24.574 19.9571 24.6355 19.8956C24.6765 19.8341 24.7175 19.7726 24.7585 19.7111C24.8201 19.629 24.8713 19.5573 24.9123 19.4958C24.9533 19.4548 24.9738 19.4343 24.9738 19.4343C25.0148 19.3727 25.0558 19.301 25.0968 19.219C25.1584 19.137 25.2199 19.0549 25.2814 18.9729C25.3224 18.9114 25.3634 18.8499 25.4044 18.7884C25.4659 18.7269 25.5172 18.6551 25.5582 18.5731C25.6197 18.4911 25.7222 18.3783 25.8657 18.2348V18.1425V18.1118C25.8657 18.0913 25.876 18.0913 25.8965 18.1118V18.081C25.8965 18.081 25.917 18.0605 25.958 18.0195V18.0503C25.9785 18.0298 25.9887 18.0195 25.9887 18.0195C25.9887 17.999 25.999 17.9888 26.0195 17.9888C26.04 17.9478 26.0605 17.917 26.081 17.8965C26.122 17.876 26.1528 17.8452 26.1733 17.8042C26.1528 17.8042 26.1425 17.8145 26.1425 17.835C26.163 17.794 26.1835 17.7632 26.204 17.7427C26.2245 17.7222 26.245 17.6915 26.2655 17.6505C26.3065 17.5684 26.3476 17.5172 26.3886 17.4967C26.3886 17.4762 26.3988 17.4557 26.4193 17.4352C26.4603 17.3942 26.4808 17.3634 26.4808 17.3429C26.5013 17.3224 26.5116 17.3019 26.5116 17.2814L26.5731 17.2199L26.6038 17.1891V17.1276C26.6038 17.1276 26.6243 17.0866 26.6654 17.0046C26.6449 17.0251 26.6346 17.0354 26.6346 17.0354C26.6346 17.0149 26.6551 16.9944 26.6961 16.9739V16.9123V16.8508C26.7166 16.8098 26.7269 16.7893 26.7269 16.7893C26.7474 16.7688 26.7679 16.7381 26.7884 16.6971C26.8089 16.656 26.8191 16.6355 26.8191 16.6355C26.8396 16.615 26.8601 16.5843 26.8806 16.5433V16.5125V16.451C26.8806 16.41 26.8909 16.369 26.9114 16.328V16.2665V16.2357C26.9114 16.2562 26.9011 16.2665 26.8806 16.2665C26.8806 16.2665 26.8806 16.2767 26.8806 16.2972C26.8601 16.3382 26.8396 16.3793 26.8191 16.4203C26.7986 16.4613 26.7781 16.5023 26.7576 16.5433C26.7576 16.5638 26.7474 16.574 26.7269 16.574C26.6859 16.6971 26.6449 16.7893 26.6038 16.8508C26.5833 16.8918 26.5628 16.9328 26.5423 16.9739C26.5218 17.0149 26.5013 17.0559 26.4808 17.0969L26.204 17.3737C26.1835 17.3737 26.1733 17.3839 26.1733 17.4044C26.1938 17.4044 26.1835 17.4044 26.1425 17.4044C26.1425 17.4044 26.1425 17.3942 26.1425 17.3737C26.163 17.3327 26.163 17.3122 26.1425 17.3122C26.1425 17.2917 26.1528 17.2712 26.1733 17.2506C26.1733 17.2506 26.1733 17.1994 26.1733 17.0969C26.2143 17.0764 26.2348 17.0354 26.2348 16.9739C26.2963 16.8303 26.3578 16.7073 26.4193 16.6048C26.4193 16.5638 26.4193 16.5433 26.4193 16.5433C26.4398 16.5228 26.4501 16.5023 26.4501 16.4818C26.4501 16.4613 26.4603 16.4613 26.4808 16.4818V16.4203H26.5116C26.5321 16.3793 26.5423 16.3485 26.5423 16.328C26.5423 16.3075 26.5526 16.287 26.5731 16.2665C26.5731 16.246 26.5833 16.2357 26.6038 16.2357V16.1435V16.1127C26.6038 16.1332 26.5936 16.1435 26.5731 16.1435V15.9897V16.0204V15.9897L26.6346 15.9282C26.6346 15.8872 26.6449 15.8564 26.6654 15.8359C26.6859 15.7949 26.6961 15.7539 26.6961 15.7129C26.7166 15.6924 26.7269 15.6719 26.7269 15.6514C26.7884 15.5079 26.8089 15.3746 26.7884 15.2516C26.7884 15.2311 26.7781 15.2106 26.7576 15.1901L26.7884 15.1593C26.7884 15.1183 26.8089 15.0978 26.8499 15.0978C26.7474 15.0363 26.7371 14.944 26.8191 14.821V14.944L26.8499 14.9133C26.8294 14.9133 26.8191 14.903 26.8191 14.8825C26.8191 14.862 26.8191 14.8518 26.8191 14.8518C26.8396 14.8312 26.8499 14.821 26.8499 14.821V14.7902V14.7595C26.8704 14.78 26.8704 14.78 26.8499 14.7595C26.8499 14.739 26.8601 14.739 26.8806 14.7595V14.7287V14.6672C26.8806 14.6262 26.8704 14.6057 26.8499 14.6057V14.575H26.8806H26.8499H26.8806C26.8806 14.5545 26.8601 14.5237 26.8191 14.4827C26.7986 14.4827 26.7884 14.4724 26.7884 14.4519V14.4827V14.5134C26.7474 14.4724 26.7064 14.4314 26.6654 14.3904C26.6243 14.3494 26.5833 14.3084 26.5423 14.2674C26.5628 14.3084 26.5833 14.3392 26.6038 14.3597L26.5423 14.2982C26.5423 14.2777 26.5321 14.2674 26.5116 14.2674C26.5116 14.2469 26.5013 14.2367 26.4808 14.2367L26.4501 14.2059C26.4091 14.1649 26.3886 14.1444 26.3886 14.1444C26.3476 14.1239 26.3065 14.1034 26.2655 14.0829C26.2245 14.0624 26.1835 14.0419 26.1425 14.0214C26.1015 13.9804 26.0195 13.9394 25.8965 13.8983C25.835 13.8983 25.794 13.8881 25.7735 13.8676H25.7427H25.6812C25.5787 13.8266 25.4864 13.8061 25.4044 13.8061C25.3224 13.8061 25.2301 13.8061 25.1276 13.8061C25.0251 13.8266 24.9328 13.8471 24.8508 13.8676C24.7688 13.8676 24.6765 13.8881 24.574 13.9291C24.5535 13.9496 24.533 13.9599 24.5125 13.9599C24.492 13.9599 24.4612 13.9701 24.4202 13.9906C24.4202 14.0111 24.3792 14.0214 24.2972 14.0214H24.1127C24.0512 14.0829 23.9384 14.1444 23.7744 14.2059C23.7539 14.2059 23.7334 14.2161 23.7129 14.2367C23.6924 14.2367 23.6719 14.2367 23.6514 14.2367H23.5591C23.5181 14.2572 23.4771 14.2674 23.4361 14.2674C23.4156 14.2674 23.3848 14.2777 23.3438 14.2982C23.3643 14.2777 23.3848 14.2674 23.4053 14.2674C23.4258 14.2674 23.4463 14.2572 23.4668 14.2367H23.4361H23.4053H23.3746H23.3438C23.3233 14.2367 23.3131 14.2469 23.3131 14.2674H23.2208C23.2618 14.2469 23.2515 14.2469 23.19 14.2674C23.149 14.2674 23.149 14.2572 23.19 14.2367H23.1593V14.2674H23.1285C23.0465 14.3904 22.8927 14.4724 22.6672 14.5134C22.6262 14.5339 22.5852 14.5545 22.5442 14.575C22.5237 14.5955 22.4929 14.616 22.4519 14.6365H22.5134H22.4519C22.4109 14.657 22.3596 14.6775 22.2981 14.698C22.2366 14.7185 22.1751 14.7492 22.1136 14.7902V14.821H22.0829H22.0521H22.0213H22.0521H21.9906C21.9906 14.821 22.0008 14.8312 22.0213 14.8518C22.0008 14.8312 21.9906 14.8312 21.9906 14.8518V14.821C21.9906 14.821 21.9803 14.8312 21.9598 14.8518C21.9393 14.8723 21.9291 14.8928 21.9291 14.9133C21.9291 14.9338 21.9188 14.944 21.8983 14.944H21.8676C21.8676 14.944 21.8573 14.944 21.8368 14.944V14.9133C21.8163 14.9133 21.8061 14.9235 21.8061 14.944C21.8266 14.944 21.8266 14.944 21.8061 14.944L21.7753 14.9133C21.7753 14.9133 21.765 14.9235 21.7445 14.944C21.4985 15.0055 21.2935 15.108 21.1294 15.2516L21.0372 15.3438C21.0577 15.3438 21.0372 15.3541 20.9757 15.3746C20.9142 15.3951 20.8732 15.3848 20.8526 15.3438C20.8116 15.4464 20.7399 15.5181 20.6374 15.5591C20.5554 15.5796 20.4631 15.6001 20.3606 15.6206C20.4016 15.6001 20.4426 15.5899 20.4836 15.5899C20.5246 15.5694 20.5656 15.5489 20.6066 15.5284H20.5759C20.5759 15.5284 20.5656 15.5284 20.5451 15.5284C20.5451 15.5284 20.5246 15.5386 20.4836 15.5591C20.4631 15.5796 20.4528 15.5899 20.4528 15.5899C20.4528 15.5694 20.4426 15.5694 20.4221 15.5899V15.5591H20.3606L20.3298 15.5899C20.3298 15.6104 20.3196 15.6206 20.2991 15.6206C20.2991 15.6001 20.2888 15.6001 20.2683 15.6206C20.2478 15.6206 20.2375 15.6104 20.2375 15.5899H20.2068C20.2273 15.5899 20.2375 15.6001 20.2375 15.6206H20.1145V15.6514C20.094 15.6514 20.0735 15.6616 20.053 15.6821C20.0325 15.7026 20.012 15.7026 19.9915 15.6821H19.9608C19.9608 15.7026 19.9505 15.7129 19.93 15.7129V15.6821C19.9505 15.6821 19.9608 15.6719 19.9608 15.6514C19.9402 15.6719 19.9095 15.6821 19.8685 15.6821H19.8377H19.807C19.807 15.7026 19.7967 15.7129 19.7762 15.7129H19.7147C19.6942 15.7334 19.6737 15.7436 19.6532 15.7436C19.6327 15.7436 19.6224 15.7539 19.6224 15.7744C19.6019 15.7744 19.5917 15.7744 19.5917 15.7744C19.6122 15.7539 19.643 15.7436 19.684 15.7436C19.684 15.7231 19.6942 15.7129 19.7147 15.7129H19.684L19.6532 15.7436C19.6327 15.7436 19.6122 15.7539 19.5917 15.7744C19.5917 15.7539 19.5814 15.7436 19.5609 15.7436C19.5609 15.7436 19.5609 15.7539 19.5609 15.7744H19.5302C19.5507 15.7744 19.5609 15.7642 19.5609 15.7436H19.4687V15.7744C19.4687 15.7744 19.4584 15.7642 19.4379 15.7436C19.4379 15.7436 19.4482 15.7334 19.4687 15.7129C19.4892 15.7129 19.4892 15.7231 19.4687 15.7436C19.4687 15.7436 19.4789 15.7436 19.4994 15.7436L19.4687 15.7129H19.4072H19.3764C19.3764 15.7129 19.3662 15.7129 19.3457 15.7129C19.3457 15.7129 19.3354 15.7026 19.3149 15.6821C19.3149 15.6821 19.3149 15.6924 19.3149 15.7129L19.2841 15.6821H19.2534C19.2329 15.6821 19.2226 15.6719 19.2226 15.6514C19.2636 15.6104 19.2636 15.5899 19.2226 15.5899C19.2226 15.5899 19.2431 15.5796 19.2841 15.5591V15.5284H19.3149V15.5591V15.5284V15.5591H19.3764H19.4072H19.3764C19.3764 15.5591 19.3867 15.5694 19.4072 15.5899V15.5591C19.4072 15.5796 19.4277 15.5899 19.4687 15.5899H19.4994H19.5609C19.5404 15.5899 19.5199 15.5899 19.4994 15.5899C19.4789 15.5694 19.4584 15.5591 19.4379 15.5591H19.4687H19.4994H19.5302H19.5609V15.5284C19.5814 15.5284 19.5917 15.5181 19.5917 15.4976C19.6122 15.4976 19.6224 15.4976 19.6224 15.4976C19.6224 15.4771 19.6327 15.4669 19.6532 15.4669H19.684C19.684 15.4669 19.6942 15.4669 19.7147 15.4669C19.7147 15.4669 19.725 15.4566 19.7455 15.4361C19.7455 15.4361 19.766 15.4361 19.807 15.4361V15.4669C19.8275 15.4669 19.8377 15.4566 19.8377 15.4361H19.8992C19.9402 15.4156 19.9813 15.4053 20.0223 15.4053C20.0838 15.4053 20.135 15.3848 20.176 15.3438C20.176 15.3438 20.1658 15.3438 20.1453 15.3438C20.1863 15.3438 20.2068 15.3336 20.2068 15.3131C20.2068 15.3131 20.1863 15.3233 20.1453 15.3438C20.1453 15.3233 20.135 15.3131 20.1145 15.3131C20.1145 15.3131 20.0735 15.3336 19.9915 15.3746C19.9505 15.3746 19.9095 15.3848 19.8685 15.4053C19.766 15.4053 19.6942 15.4156 19.6532 15.4361H19.4687C19.4482 15.4156 19.4072 15.4053 19.3457 15.4053C19.2636 15.4463 19.1919 15.4771 19.1304 15.4976C19.0689 15.5181 19.0073 15.5386 18.9458 15.5591C18.7818 15.6206 18.6485 15.6924 18.546 15.7744C18.423 15.8154 18.3307 15.8564 18.2692 15.8974C18.2692 15.9384 18.1872 15.9384 18.0232 15.8974C17.8592 15.8564 17.7771 15.7949 17.7771 15.7129C17.5926 15.8974 17.3671 15.9384 17.1005 15.8359C16.8545 15.7744 16.6392 15.6309 16.4547 15.4053C16.5572 15.4669 16.6495 15.5284 16.7315 15.5899C16.834 15.6309 16.9365 15.6616 17.039 15.6821H16.9775C16.998 15.6206 16.9775 15.5796 16.916 15.5591C16.916 15.6001 16.8955 15.6206 16.8545 15.6206C16.8135 15.6001 16.7725 15.5796 16.7315 15.5591C16.6905 15.5386 16.67 15.5181 16.67 15.4976C16.67 15.4771 16.6495 15.4566 16.6085 15.4361C16.6085 15.4361 16.6187 15.4258 16.6392 15.4053C16.5982 15.3643 16.5777 15.3438 16.5777 15.3438C16.5982 15.3438 16.5879 15.3233 16.5469 15.2823C16.5059 15.2823 16.4752 15.2926 16.4547 15.3131C16.4342 15.2926 16.4137 15.2823 16.3932 15.2823C16.3932 15.2823 16.3829 15.2618 16.3624 15.2208C16.4239 15.2208 16.4342 15.2003 16.3932 15.1593C16.3522 15.1183 16.3624 15.0875 16.4239 15.067L16.3624 15.0055C16.3624 15.0465 16.3522 15.067 16.3317 15.067V15.0978C16.2906 15.1388 16.2394 15.1593 16.1779 15.1593C16.1574 15.2208 16.1266 15.2618 16.0856 15.2823C16.0446 15.2823 16.0036 15.2926 15.9626 15.3131C15.9216 15.2721 15.8703 15.2618 15.8088 15.2823C15.7678 15.3028 15.7268 15.3028 15.6858 15.2823H15.655C15.409 15.2003 15.2245 15.026 15.1015 14.7595C15.081 14.7595 15.0502 14.739 15.0092 14.698C15.0092 14.657 14.9887 14.616 14.9477 14.575C14.9682 14.616 14.9784 14.6262 14.9784 14.6057C14.9579 14.5647 14.9682 14.5339 15.0092 14.5134L14.9477 14.4519C14.9682 14.4314 14.9784 14.4109 14.9784 14.3904C14.9784 14.3494 14.9682 14.2982 14.9477 14.2367C14.9272 14.1546 14.9272 14.0931 14.9477 14.0521H14.9169C14.9169 14.0111 14.9374 14.0009 14.9784 14.0214C14.9579 13.9804 14.9477 13.9496 14.9477 13.9291C14.9477 13.8881 14.9272 13.8573 14.8862 13.8368V13.7753C14.8657 13.7958 14.8554 13.8061 14.8554 13.8061C14.8349 13.8061 14.8144 13.8163 14.7939 13.8368C14.7939 13.7958 14.7837 13.7548 14.7631 13.7138C14.7426 13.6523 14.7324 13.5908 14.7324 13.5293L14.6709 13.5908C14.6709 13.5908 14.6811 13.5703 14.7016 13.5293C14.7221 13.4883 14.7529 13.437 14.7939 13.3755C14.8144 13.314 14.8452 13.2525 14.8862 13.191C14.9682 13.027 15.0297 12.9244 15.0707 12.8834C15.1527 12.7809 15.2347 12.6886 15.3167 12.6066C15.3782 12.5041 15.3988 12.3811 15.3782 12.2376V12.1146C15.3372 12.094 15.3475 12.0735 15.409 12.053C15.491 12.0325 15.573 12.0428 15.655 12.0838C15.5525 11.9198 15.5423 11.8173 15.6243 11.7762C15.7063 11.7147 15.8088 11.6737 15.9318 11.6532C15.8908 11.6942 15.8601 11.725 15.8396 11.7455C15.8191 11.7455 15.7883 11.766 15.7473 11.807H15.7781C15.7986 11.8275 15.8191 11.8378 15.8396 11.8378C15.8396 11.8378 15.8396 11.807 15.8396 11.7455C15.8601 11.725 15.8806 11.725 15.9011 11.7455C15.9216 11.766 15.9318 11.7557 15.9318 11.7147L15.9934 11.7762C15.9934 11.7762 16.0139 11.766 16.0549 11.7455L16.0241 11.7147C16.0241 11.6942 16.0344 11.684 16.0549 11.684C16.0754 11.7045 16.0959 11.7147 16.1164 11.7147C16.1164 11.6737 16.1164 11.6532 16.1164 11.6532H16.1779C16.1779 11.6122 16.1676 11.5815 16.1471 11.561L16.1779 11.5302C16.1574 11.5507 16.1266 11.561 16.0856 11.561C16.0856 11.4789 16.0959 11.4174 16.1164 11.3764C16.1164 11.2739 16.1266 11.2022 16.1471 11.1611C16.1061 11.1816 16.0754 11.2022 16.0549 11.2227C16.0549 11.2227 16.0754 11.2022 16.1164 11.1611C16.1574 11.1201 16.2086 11.0689 16.2701 11.0074C16.3317 10.9254 16.3932 10.8536 16.4547 10.7921C16.5777 10.6281 16.6905 10.5153 16.793 10.4538C16.9365 10.3513 17.0595 10.2487 17.162 10.1462C17.2851 10.0232 17.3671 9.87968 17.4081 9.71566C17.4286 9.69515 17.4388 9.6439 17.4388 9.56188C17.4183 9.54138 17.4491 9.52088 17.5311 9.50037C17.6336 9.45937 17.7156 9.46962 17.7771 9.53113C17.7156 9.3466 17.7361 9.22358 17.8387 9.16207C17.9617 9.10056 18.0949 9.05955 18.2385 9.03905C18.1154 9.12106 18.0334 9.18257 17.9924 9.22358H18.0232C18.0232 9.28509 18.0437 9.29534 18.0847 9.25433C18.0437 9.23383 18.0539 9.19282 18.1154 9.13131C18.136 9.11081 18.1565 9.11081 18.177 9.13131C18.1975 9.15181 18.2077 9.15181 18.2077 9.13131H18.2385C18.2385 9.13131 18.259 9.11081 18.3 9.0698C18.1975 8.96729 18.136 8.91603 18.1154 8.91603H18.1462C18.1257 8.93653 18.1154 8.93653 18.1154 8.91603C18.0949 8.91603 18.0847 8.90577 18.0847 8.88527C18.0847 8.90577 18.0744 8.90577 18.0539 8.88527C18.0539 8.84426 18.0539 8.80326 18.0539 8.76225C18.0334 8.76225 18.0232 8.752 18.0232 8.7315H18.0539C18.0539 8.69049 18.0744 8.69049 18.1154 8.7315C18.1154 8.71099 18.1154 8.70074 18.1154 8.70074C18.136 8.68024 18.1462 8.65973 18.1462 8.63923C18.1667 8.63923 18.177 8.62898 18.177 8.60847C18.177 8.58797 18.1975 8.58797 18.2385 8.60847C18.1975 8.64948 18.177 8.66999 18.177 8.66999C18.218 8.66999 18.2282 8.66999 18.2077 8.66999C18.2077 8.64948 18.218 8.63923 18.2385 8.63923C18.259 8.63923 18.259 8.62898 18.2385 8.60847C18.3205 8.56747 18.3717 8.53671 18.3922 8.51621C18.4333 8.51621 18.4538 8.49571 18.4538 8.4547C18.4127 8.4547 18.3717 8.46495 18.3307 8.48545C18.3102 8.50596 18.2795 8.51621 18.2385 8.51621C18.259 8.51621 18.2692 8.49571 18.2692 8.4547C18.2692 8.4752 18.2795 8.48545 18.3 8.48545L18.3307 8.4547H18.3615C18.3 8.4547 18.2897 8.4342 18.3307 8.39319H18.3615C18.341 8.37269 18.3307 8.32143 18.3307 8.23942C18.3512 8.1574 18.3615 8.10614 18.3615 8.08564V8.05488C18.4025 8.07539 18.4127 8.07539 18.3922 8.05488C18.3922 8.03438 18.4127 8.03438 18.4538 8.05488V7.99337C18.4743 7.95237 18.4948 7.94212 18.5153 7.96262C18.5358 7.98312 18.5563 7.97287 18.5768 7.93186H18.6075C18.628 7.93186 18.628 7.93186 18.6075 7.93186C18.587 7.91136 18.5973 7.89086 18.6383 7.87035H18.669C18.6895 7.87035 18.71 7.8601 18.7306 7.8396C18.7921 7.79859 18.8536 7.75759 18.9151 7.71658C18.9971 7.65507 19.0586 7.59356 19.0996 7.53205C19.0586 7.51155 19.0381 7.5218 19.0381 7.5628C19.0586 7.58331 19.0484 7.58331 19.0073 7.5628C19.0484 7.50129 19.0996 7.45003 19.1611 7.40903C19.2226 7.34752 19.2739 7.28601 19.3149 7.2245C19.3969 7.10148 19.4994 6.99896 19.6224 6.91695C19.6635 6.87594 19.7045 6.85544 19.7455 6.85544C19.807 6.85544 19.8582 6.83493 19.8992 6.79393C19.9197 6.79393 19.9402 6.75292 19.9608 6.67091C19.9813 6.58889 20.012 6.55814 20.053 6.57864C20.094 6.53764 20.1145 6.52738 20.1145 6.54789C20.1145 6.54789 20.135 6.52738 20.176 6.48638C20.217 6.48638 20.2375 6.47612 20.2375 6.45562L20.3298 6.36336C20.3708 6.32235 20.4016 6.29159 20.4221 6.27109C20.4426 6.23008 20.4733 6.18908 20.5143 6.14807C20.4733 6.14807 20.4528 6.13782 20.4528 6.11732C20.4733 6.07631 20.5348 6.06606 20.6374 6.08656C20.6579 6.06606 20.6579 6.04555 20.6374 6.02505C20.6374 6.00455 20.6579 5.9943 20.6989 5.9943C20.6989 5.93279 20.7091 5.88153 20.7296 5.84052C20.8116 5.738 20.9142 5.67649 21.0372 5.65599C21.1602 5.61498 21.2832 5.55347 21.4062 5.47146V5.4407C21.4267 5.4407 21.4575 5.40995 21.4985 5.34844C21.56 5.28693 21.6215 5.21517 21.683 5.13315C21.724 5.05114 21.765 4.98963 21.8061 4.94862C21.8676 4.88711 21.9086 4.86661 21.9291 4.88711C21.9291 4.86661 21.9291 4.85636 21.9291 4.85636C21.9496 4.85636 21.9598 4.84611 21.9598 4.8256C22.0008 4.7846 22.0418 4.76409 22.0829 4.76409C22.1444 4.74359 22.1956 4.71283 22.2366 4.67183C22.3391 4.58982 22.4314 4.51805 22.5134 4.45654C22.6159 4.37453 22.7082 4.30277 22.7902 4.24126C22.8722 4.24126 22.9235 4.23101 22.944 4.2105L23.2208 3.93371C23.3438 3.85169 23.4463 3.76968 23.5283 3.68767C23.6309 3.62616 23.7334 3.5749 23.8359 3.53389C23.9589 3.47238 24.0717 3.40062 24.1742 3.31861C24.2562 3.2776 24.3382 3.24684 24.4202 3.22634C24.5022 3.18533 24.5843 3.14433 24.6663 3.10332C24.7483 3.06231 24.8303 3.04181 24.9123 3.04181C24.9943 3.02131 25.0866 2.99055 25.1891 2.94954H25.1584C25.2199 2.97005 25.2506 2.97005 25.2506 2.94954C25.2711 2.92904 25.3019 2.92904 25.3429 2.94954C25.3839 2.94954 25.3839 2.97005 25.3429 3.01106C25.3019 3.03156 25.3019 3.05206 25.3429 3.07256C25.3019 3.11357 25.2609 3.15458 25.2199 3.19558C25.1994 3.21609 25.1584 3.24684 25.0968 3.28785C25.1174 3.34936 25.0968 3.41087 25.0353 3.47238C24.9943 3.53389 24.9533 3.5954 24.9123 3.65691C24.8508 3.67741 24.7893 3.71842 24.7278 3.77993C24.8098 3.75943 24.8508 3.73892 24.8508 3.71842C24.8713 3.75943 24.9021 3.75943 24.9431 3.71842C24.9636 3.69792 24.9738 3.68767 24.9738 3.68767C24.9738 3.66716 24.9841 3.64666 25.0046 3.62616C25.0456 3.58515 25.0763 3.55439 25.0968 3.53389C25.1379 3.51339 25.1789 3.48263 25.2199 3.44163C25.1789 3.44163 25.1584 3.43137 25.1584 3.41087C25.1789 3.36986 25.2301 3.36986 25.3121 3.41087C25.3531 3.41087 25.3634 3.40062 25.3429 3.38012C25.3429 3.35961 25.3531 3.34936 25.3736 3.34936C25.3736 3.28785 25.3941 3.23659 25.4352 3.19558C25.5172 3.11357 25.6197 3.06231 25.7427 3.04181C25.8657 3.0008 25.9785 2.9598 26.081 2.91879C26.081 2.91879 26.0913 2.90854 26.1118 2.88803L26.204 2.79577C26.163 2.75476 26.1425 2.73426 26.1425 2.73426V2.76501V2.73426V2.67275C26.163 2.65225 26.1733 2.65225 26.1733 2.67275C26.1733 2.65225 26.1835 2.64199 26.204 2.64199L26.2348 2.61124L26.204 2.64199H26.2348C26.2553 2.64199 26.2553 2.63174 26.2348 2.61124C26.2553 2.61124 26.2655 2.61124 26.2655 2.61124C26.286 2.59074 26.3065 2.58048 26.327 2.58048L26.3578 2.54973C26.3373 2.54973 26.3168 2.55998 26.2963 2.58048C26.2963 2.58048 26.286 2.58048 26.2655 2.58048V2.54973L26.2963 2.58048V2.54973H26.327C26.327 2.54973 26.327 2.53948 26.327 2.51897L26.3578 2.39595H26.3886C26.3886 2.39595 26.3988 2.3857 26.4193 2.3652C26.4398 2.34469 26.4603 2.33444 26.4808 2.33444C26.5013 2.33444 26.5013 2.33444 26.4808 2.33444C26.4808 2.31394 26.4911 2.30369 26.5116 2.30369H26.5731C26.6141 2.26268 26.6449 2.24218 26.6654 2.24218C26.6859 2.22167 26.7166 2.19092 26.7576 2.14991C26.7576 2.14991 26.7474 2.14991 26.7269 2.14991C26.7679 2.12941 26.8191 2.0884 26.8806 2.02689C26.9216 1.98589 26.9524 1.96538 26.9729 1.96538C26.9934 1.94488 27.0242 1.91412 27.0652 1.87312C27.1062 1.85261 27.1267 1.84236 27.1267 1.84236C27.1472 1.84236 27.1779 1.83211 27.2189 1.81161V1.84236L27.2805 1.71934C27.3215 1.71934 27.3522 1.70909 27.3727 1.68859H27.4035C27.4035 1.66808 27.4035 1.65783 27.4035 1.65783C27.424 1.65783 27.4342 1.64758 27.4342 1.62708C27.4547 1.60657 27.4752 1.59632 27.4957 1.59632C27.5162 1.57582 27.5367 1.55532 27.5573 1.53481C27.5367 1.53481 27.5265 1.53481 27.5265 1.53481C27.547 1.51431 27.5778 1.50406 27.6188 1.50406C27.6188 1.50406 27.629 1.4938 27.6495 1.4733C27.6495 1.4733 27.6598 1.4528 27.6803 1.41179C27.7418 1.37079 27.8546 1.30927 28.0186 1.22726H28.0493L28.1724 1.10424C28.1929 1.08374 28.2134 1.07349 28.2339 1.07349C28.2544 1.05298 28.2749 1.03248 28.2954 1.01198L28.3261 0.981222V0.950465C28.3671 0.929962 28.3979 0.919711 28.4184 0.919711C28.4389 0.919711 28.4594 0.909459 28.4799 0.888956C28.5209 0.84795 28.5722 0.817195 28.6337 0.79669C28.6952 0.755684 28.7464 0.714677 28.7875 0.67367H28.849C28.8695 0.632663 28.9207 0.591657 29.0027 0.550651C29.0437 0.530147 29.095 0.48914 29.1565 0.427631C29.3205 0.345617 29.4333 0.284106 29.4948 0.243099C29.4948 0.243099 29.5358 0.222596 29.6178 0.18159C29.6383 0.161087 29.6588 0.150835 29.6794 0.150835C29.6999 0.150835 29.7306 0.140583 29.7716 0.12008H29.8639H29.9254H29.9869C30.0074 0.140583 30.0279 0.150835 30.0484 0.150835H30.2637H30.2945C30.315 0.171338 30.315 0.18159 30.2945 0.18159C30.2534 0.222596 30.2329 0.243099 30.2329 0.243099C30.2329 0.263603 30.2227 0.284107 30.2022 0.30461V0.335365C30.2022 0.335365 30.2124 0.355868 30.2329 0.396874L30.2022 0.427631V0.396874C30.1817 0.376371 30.1714 0.366119 30.1714 0.366119V0.335365L30.1099 0.396874V0.427631C30.0279 0.468637 29.9869 0.48914 29.9869 0.48914C29.9664 0.509643 29.9459 0.519895 29.9254 0.519895V0.550651C29.9254 0.550651 29.9254 0.560903 29.9254 0.581406C29.9254 0.560903 29.9356 0.560903 29.9561 0.581406V0.61216C29.9561 0.61216 29.9664 0.622412 29.9869 0.642915L29.9561 0.61216L29.9869 0.642915C30.0074 0.622412 30.0279 0.622412 30.0484 0.642915C30.0689 0.642915 30.0894 0.632663 30.1099 0.61216H30.0792C30.1202 0.571154 30.1509 0.550651 30.1714 0.550651C30.1919 0.530147 30.2227 0.499391 30.2637 0.458385C30.3047 0.499391 30.3252 0.509643 30.3252 0.48914C30.3662 0.407126 30.4175 0.335365 30.479 0.273855C30.52 0.232848 30.5507 0.212344 30.5712 0.212344C30.6123 0.212344 30.643 0.191841 30.6635 0.150835C30.7865 0.109828 30.9096 0.099576 31.0326 0.12008L31.0018 0.0893238C31.0428 0.130331 31.0531 0.140583 31.0326 0.12008C31.0326 0.099576 31.0531 0.109828 31.0941 0.150835C31.1146 0.171338 31.1146 0.191841 31.0941 0.212344C31.0941 0.212344 31.1043 0.222596 31.1248 0.243099C31.1248 0.325113 31.1146 0.376371 31.0941 0.396874C31.1146 0.458385 31.1248 0.540398 31.1248 0.642915C31.0838 0.622412 31.0633 0.632663 31.0633 0.67367C31.0838 0.714677 31.0838 0.755684 31.0633 0.79669H31.0941C31.0531 0.837698 31.0326 0.878704 31.0326 0.919711C31.0736 0.878704 31.1043 0.84795 31.1248 0.827447C31.1658 0.806942 31.2069 0.776187 31.2479 0.735181C31.3299 0.694173 31.4119 0.67367 31.4939 0.67367C31.5759 0.653167 31.6682 0.632663 31.7707 0.61216C31.8117 0.632663 31.822 0.632663 31.8015 0.61216C31.8015 0.591657 31.822 0.601909 31.863 0.642915C31.904 0.642915 31.9142 0.653167 31.8937 0.67367C31.8732 0.694174 31.8732 0.714678 31.8937 0.735181C31.8732 0.776187 31.863 0.806942 31.863 0.827447C31.863 0.84795 31.8425 0.878704 31.8015 0.919711C31.8425 0.960718 31.8527 1.01198 31.8322 1.07349C31.8117 1.11449 31.8015 1.1555 31.8015 1.19651C31.7604 1.19651 31.7297 1.21701 31.7092 1.25802C31.7092 1.29902 31.6989 1.34003 31.6784 1.38104H31.7092C31.6272 1.50406 31.5247 1.61683 31.4016 1.71934V1.7501H31.3709C31.3709 1.7501 31.3504 1.7706 31.3094 1.81161V1.84236C31.3299 1.84236 31.3401 1.84236 31.3401 1.84236C31.3606 1.82186 31.3811 1.81161 31.4016 1.81161V1.78085C31.4016 1.78085 31.4119 1.7911 31.4324 1.81161C31.4529 1.7911 31.5042 1.78085 31.5862 1.78085H31.7399C31.7399 1.78085 31.7604 1.7911 31.8015 1.81161L31.7707 1.84236C31.7502 1.86287 31.7297 1.87312 31.7092 1.87312C31.7092 1.87312 31.6989 1.88337 31.6784 1.90387C31.6784 1.92438 31.6682 1.94488 31.6477 1.96538C31.6272 1.96538 31.6169 1.97564 31.6169 1.99614C31.5759 1.99614 31.5349 2.01664 31.4939 2.05765L31.4324 2.11916H31.4939C31.5349 2.13966 31.5349 2.14991 31.4939 2.14991C31.4734 2.14991 31.4631 2.16017 31.4631 2.18067C31.4631 2.18067 31.4734 2.18067 31.4939 2.18067H31.4016C31.3811 2.18067 31.3606 2.18067 31.3401 2.18067C31.3401 2.16017 31.3299 2.14991 31.3094 2.14991C31.2889 2.17042 31.2684 2.18067 31.2479 2.18067C31.2479 2.18067 31.2376 2.19092 31.2171 2.21142C31.1966 2.23193 31.1761 2.24218 31.1556 2.24218C31.1556 2.24218 31.1453 2.25243 31.1248 2.27293C31.1248 2.27293 31.1146 2.26268 31.0941 2.24218L31.0633 2.27293C31.0223 2.27293 30.9813 2.29344 30.9403 2.33444H30.9096H30.8788C30.8788 2.35495 30.8685 2.3652 30.848 2.3652C30.848 2.3652 30.848 2.37545 30.848 2.39595H30.8788C30.8378 2.43696 30.8173 2.45746 30.8173 2.45746V2.48822V2.51897H30.8788H30.8173C30.7763 2.53948 30.7148 2.57023 30.6328 2.61124C30.5507 2.63174 30.479 2.6625 30.4175 2.7035L30.356 2.76501H30.4175V2.73426C30.4585 2.71376 30.479 2.7035 30.479 2.7035C30.4995 2.7035 30.5302 2.69325 30.5712 2.67275C30.5918 2.67275 30.602 2.67275 30.602 2.67275C30.602 2.65225 30.6123 2.64199 30.6328 2.64199C30.6533 2.64199 30.6635 2.64199 30.6635 2.64199C30.684 2.62149 30.7045 2.61124 30.725 2.61124C30.807 2.57023 30.8583 2.54973 30.8788 2.54973C30.9198 2.54973 30.9403 2.53948 30.9403 2.51897C30.9813 2.51897 31.0428 2.49847 31.1248 2.45746L31.3094 2.3652C31.3709 2.34469 31.4836 2.31394 31.6477 2.27293C31.7502 2.25243 31.8425 2.24218 31.9245 2.24218C32.0065 2.22167 32.0987 2.23193 32.2013 2.27293C32.2218 2.27293 32.2525 2.28319 32.2935 2.30369ZM31.3401 2.14991C31.3606 2.12941 31.3709 2.11916 31.3709 2.11916C31.3914 2.13966 31.4016 2.14991 31.4016 2.14991C31.4426 2.14991 31.4631 2.16017 31.4631 2.18067C31.4426 2.18067 31.4221 2.18067 31.4016 2.18067C31.4016 2.16017 31.3914 2.14991 31.3709 2.14991H31.3401ZM30.725 1.19651C30.725 1.19651 30.7045 1.21701 30.6635 1.25802H30.6943C30.7148 1.23751 30.725 1.21701 30.725 1.19651ZM26.1733 2.7035V2.67275H26.1425V2.73426C26.1425 2.71376 26.1528 2.7035 26.1733 2.7035H26.1425L26.1733 2.67275V2.7035ZM18.1462 8.76225H18.1154C18.1154 8.76225 18.0949 8.76225 18.0539 8.76225C18.0539 8.78275 18.0539 8.80326 18.0539 8.82376C18.0744 8.82376 18.0847 8.83401 18.0847 8.85452V8.88527H18.1154V8.85452V8.82376H18.0847C18.0847 8.78275 18.1052 8.76225 18.1462 8.76225V8.79301V8.76225ZM18.177 8.88527C18.177 8.90577 18.1872 8.91603 18.2077 8.91603C18.1872 8.91603 18.177 8.90577 18.177 8.88527ZM18.3307 9.03905C18.3512 9.01854 18.3615 9.00829 18.3615 9.00829C18.382 9.00829 18.4025 8.99804 18.423 8.97754H18.3615C18.341 8.99804 18.3307 9.01854 18.3307 9.03905ZM18.4538 12.4836V12.4529C18.4538 12.4529 18.4435 12.4631 18.423 12.4836H18.4538ZM18.4845 8.91603H18.423C18.423 8.93653 18.4333 8.94678 18.4538 8.94678L18.4845 8.91603ZM18.546 8.88527C18.587 8.84426 18.628 8.81351 18.669 8.79301C18.6485 8.79301 18.628 8.78275 18.6075 8.76225L18.5153 8.85452C18.5153 8.87502 18.5153 8.88527 18.5153 8.88527C18.5358 8.86477 18.546 8.86477 18.546 8.88527ZM19.7762 12.1453L19.7455 12.1146V12.1761L19.7762 12.1453ZM19.2534 15.6206V15.5899V15.6206ZM19.3149 15.5591H19.2841C19.2636 15.5591 19.2431 15.5694 19.2226 15.5899C19.2226 15.5899 19.2329 15.5899 19.2534 15.5899H19.2226H19.2534H19.2841L19.2534 15.5591H19.3149V15.5899V15.5591ZM11.3186 30.5983V30.5676H11.2878C11.2673 30.5881 11.2571 30.6086 11.2571 30.6291H11.2878V30.5983C11.2878 30.5983 11.2981 30.5881 11.3186 30.5676V30.5983ZM11.5031 30.5983C11.5031 30.5983 11.4929 30.6086 11.4724 30.6291H11.5031V30.5983ZM16.2394 30.8751C16.3214 30.8546 16.3932 30.8136 16.4547 30.7521C16.4137 30.7726 16.3727 30.7931 16.3317 30.8136C16.3112 30.8341 16.2804 30.8546 16.2394 30.8751ZM16.7315 30.5676C16.711 30.5676 16.6905 30.5778 16.67 30.5983H16.7007L16.7315 30.5676ZM17.1313 30.2908H17.1005H17.1313ZM17.3466 27.5843H17.3773H17.3466ZM21.437 23.8015L21.4678 23.7707H21.437V23.8015ZM21.683 23.6477H21.56V23.6785C21.56 23.6785 21.5703 23.6682 21.5908 23.6477C21.5908 23.6682 21.601 23.6887 21.6215 23.7092C21.642 23.7092 21.6523 23.699 21.6523 23.6785L21.683 23.6477ZM22.2674 26.1696C22.2879 26.1491 22.3084 26.1389 22.3289 26.1389C22.3494 26.1184 22.3699 26.0876 22.3904 26.0466C22.3084 26.1286 22.2264 26.2004 22.1444 26.2619C22.0829 26.3234 22.0111 26.3849 21.9291 26.4464V26.4772L22.0213 26.3849C22.0623 26.3439 22.1034 26.3131 22.1444 26.2926C22.1854 26.2516 22.2264 26.2106 22.2674 26.1696ZM22.5134 25.9851C22.5749 25.9236 22.6159 25.8723 22.6364 25.8313C22.5954 25.8723 22.5647 25.8928 22.5442 25.8928L22.3904 26.0466C22.3904 26.0466 22.4007 26.0466 22.4212 26.0466L22.4827 25.9851H22.5134ZM22.8517 25.616L22.821 25.6468H22.7902C22.7902 25.6878 22.7697 25.7288 22.7287 25.7698H22.7595C22.7595 25.7493 22.7697 25.7288 22.7902 25.7083C22.8107 25.6878 22.821 25.6673 22.821 25.6468L22.8517 25.616ZM23.8666 21.4641C23.8666 21.4436 23.8666 21.4333 23.8666 21.4333C23.8871 21.4333 23.8974 21.4231 23.8974 21.4026C23.8974 21.4231 23.8871 21.4333 23.8666 21.4333C23.8666 21.4333 23.8666 21.4436 23.8666 21.4641ZM24.0204 21.2488C24.0409 21.2488 24.0512 21.2386 24.0512 21.218V21.2488H24.0204ZM24.1742 24.9702C24.1332 25.0112 24.1024 25.0522 24.0819 25.0932C24.0819 25.0727 24.0819 25.0624 24.0819 25.0624C24.1024 25.0624 24.1127 25.0522 24.1127 25.0317C24.1537 24.9907 24.1844 24.9497 24.205 24.9087C24.2255 24.9087 24.2357 24.8984 24.2357 24.8779C24.2152 24.8984 24.205 24.9189 24.205 24.9394C24.205 24.9394 24.1947 24.9497 24.1742 24.9702ZM24.328 24.8164C24.3075 24.8164 24.2972 24.8266 24.2972 24.8471C24.2972 24.8471 24.287 24.8471 24.2665 24.8471H24.2972L24.328 24.8164ZM24.328 24.7856V24.8164C24.369 24.7549 24.4202 24.7036 24.4817 24.6626V24.6319V24.6626C24.4407 24.6831 24.41 24.7036 24.3895 24.7241C24.3895 24.7446 24.369 24.7651 24.328 24.7856ZM24.5125 24.6319C24.5125 24.6319 24.5228 24.6216 24.5433 24.6011C24.5228 24.6011 24.5125 24.6114 24.5125 24.6319C24.5125 24.6319 24.5022 24.6319 24.4817 24.6319H24.5125ZM25.2506 23.0018C25.2711 22.9813 25.2814 22.9608 25.2814 22.9403C25.2609 22.9813 25.2096 23.0428 25.1276 23.1249H25.1584C25.1584 23.0839 25.1789 23.0634 25.2199 23.0634C25.2199 23.0428 25.2199 23.0326 25.2199 23.0326C25.2404 23.0326 25.2506 23.0223 25.2506 23.0018ZM26.8191 21.0643V21.0335L26.7884 21.0643C26.7884 21.0643 26.7986 21.0745 26.8191 21.095V21.0643ZM26.8499 21.0028L26.8191 21.0335C26.8396 21.013 26.8499 21.0028 26.8499 21.0028ZM28.7875 17.6505H28.7567C28.7772 17.6505 28.7875 17.6607 28.7875 17.6812C28.8285 17.6402 28.849 17.6197 28.849 17.6197V17.5582C28.808 17.5992 28.7875 17.63 28.7875 17.6505ZM27.465 15.3746V15.4361V15.3746ZM27.4035 21.2488C27.383 21.2488 27.3727 21.2591 27.3727 21.2796H27.4035V21.2488V21.218V21.2488ZM27.0344 14.2367C27.0549 14.2572 27.0549 14.2674 27.0344 14.2674V14.2367ZM26.9729 15.9897V16.0204C26.9729 15.9794 26.9729 15.9589 26.9729 15.9589C26.9934 15.9384 27.0037 15.9077 27.0037 15.8667V15.8974C26.9832 15.8974 26.9729 15.9487 26.9729 16.0512V15.9897ZM25.1584 10.8536H25.1276H25.1584ZM23.4361 11.4687C23.4156 11.4687 23.3951 11.4789 23.3746 11.4995C23.4361 11.4995 23.4873 11.4892 23.5283 11.4687C23.5693 11.4687 23.6309 11.4482 23.7129 11.4072H23.6514C23.5693 11.4482 23.4976 11.4687 23.4361 11.4687ZM22.0829 14.7902H22.1136V14.821C22.0931 14.8005 22.0829 14.7902 22.0829 14.7902ZM20.9142 11.9608V11.9915H20.8834C20.9039 11.9915 20.9142 11.9813 20.9142 11.9608ZM20.7604 12.0223C20.7194 12.0223 20.6886 12.0325 20.6681 12.053H20.6989C20.7194 12.053 20.7399 12.053 20.7604 12.053C20.7809 12.0325 20.8014 12.0223 20.8219 12.0223H20.7604ZM21.56 6.48638C21.5395 6.50688 21.519 6.51713 21.4985 6.51713C21.4985 6.51713 21.4883 6.52738 21.4678 6.54789C21.5088 6.50688 21.5498 6.48638 21.5908 6.48638H21.56ZM23.0363 8.36244H23.067H23.0363ZM24.574 3.99522C24.5945 3.97471 24.6048 3.96446 24.6048 3.96446C24.5843 3.98497 24.574 3.99522 24.574 3.99522ZM24.6355 3.93371H24.6048C24.6253 3.93371 24.6355 3.92345 24.6355 3.90295V3.93371ZM24.8508 7.13223C24.8303 7.13223 24.8201 7.14248 24.8201 7.16299C24.8201 7.16299 24.7995 7.18349 24.7585 7.2245L24.8508 7.13223ZM25.5582 6.67091L25.3736 6.76317H25.4044C25.3839 6.76317 25.3736 6.77342 25.3736 6.79393C25.3736 6.79393 25.3634 6.79393 25.3429 6.79393C25.4249 6.75292 25.4762 6.72217 25.4967 6.70166H25.5274L25.5582 6.67091ZM29.5871 0.704426C29.5871 0.704426 29.5973 0.694174 29.6178 0.67367C29.5973 0.67367 29.5871 0.683922 29.5871 0.704426ZM29.5871 0.765936C29.5871 0.745432 29.5871 0.735181 29.5871 0.735181C29.6076 0.735181 29.6178 0.724929 29.6178 0.704426C29.6178 0.724929 29.6076 0.735181 29.5871 0.735181C29.5871 0.735181 29.5871 0.745432 29.5871 0.765936ZM26.1425 2.67275V2.64199V2.67275Z" fill="url(#paint0_linear_28711_2412)"/>
<defs>
<linearGradient id="paint0_linear_28711_2412" x1="4.70886" y1="31.2516" x2="32.0126" y2="0.212041" gradientUnits="userSpaceOnUse">
<stop stop-color="#ED6F2D"/>
<stop offset="1" stop-color="#FFD600"/>
</linearGradient>
</defs>
</svg>
